<?xml version="1.0" encoding="utf-8" standalone="no"?>
<!DOCTYPE svg PUBLIC "-//W3C//DTD SVG 1.1//EN"
  "http://www.w3.org/Graphics/SVG/1.1/DTD/svg11.dtd">
<svg xmlns:xlink="http://www.w3.org/1999/xlink" width="1245.150313pt" height="846.455938pt" viewBox="0 0 1245.150313 846.455938" xmlns="http://www.w3.org/2000/svg" version="1.1">
 <metadata>
  <rdf:RDF xmlns:dc="http://purl.org/dc/elements/1.1/" xmlns:cc="http://creativecommons.org/ns#" xmlns:rdf="http://www.w3.org/1999/02/22-rdf-syntax-ns#">
   <cc:Work>
    <dc:type rdf:resource="http://purl.org/dc/dcmitype/StillImage"/>
    <dc:date>2025-05-04T12:36:54.761502</dc:date>
    <dc:format>image/svg+xml</dc:format>
    <dc:creator>
     <cc:Agent>
      <dc:title>Matplotlib v3.10.0, https://matplotlib.org/</dc:title>
     </cc:Agent>
    </dc:creator>
   </cc:Work>
  </rdf:RDF>
 </metadata>
 <defs>
  <style type="text/css">*{stroke-linejoin: round; stroke-linecap: butt}</style>
 </defs>
 <g id="figure_1">
  <g id="patch_1">
   <path d="M 0 846.455938 
L 1245.150313 846.455938 
L 1245.150313 0 
L 0 0 
z
" style="fill: #ffffff"/>
  </g>
  <g id="axes_1">
   <g id="patch_2">
    <path d="M 97.470313 386.737908 
L 432.905607 386.737908 
L 432.905607 78.703125 
L 97.470313 78.703125 
z
" style="fill: #ffffff"/>
   </g>
   <g id="QuadMesh_1">
    <path d="M 97.470313 78.703125 
L 265.18796 78.703125 
L 265.18796 232.720516 
L 97.470313 232.720516 
L 97.470313 78.703125 
" clip-path="url(#ped114cb6eb)" style="fill: #e2edf8"/>
    <path d="M 265.18796 78.703125 
L 432.905607 78.703125 
L 432.905607 232.720516 
L 265.18796 232.720516 
L 265.18796 78.703125 
" clip-path="url(#ped114cb6eb)" style="fill: #ecf4fb"/>
    <path d="M 97.470313 232.720516 
L 265.18796 232.720516 
L 265.18796 386.737908 
L 97.470313 386.737908 
L 97.470313 232.720516 
" clip-path="url(#ped114cb6eb)" style="fill: #f7fbff"/>
    <path d="M 265.18796 232.720516 
L 432.905607 232.720516 
L 432.905607 386.737908 
L 265.18796 386.737908 
L 265.18796 232.720516 
" clip-path="url(#ped114cb6eb)" style="fill: #08306b"/>
   </g>
   <g id="matplotlib.axis_1">
    <g id="xtick_1">
     <g id="line2d_1">
      <defs>
       <path id="m7ce636003c" d="M 0 0 
L 0 3.5 
" style="stroke: #000000; stroke-width: 1.5"/>
      </defs>
      <g>
       <use xlink:href="#m7ce636003c" x="181.329136" y="386.737908" style="stroke: #000000; stroke-width: 1.5"/>
      </g>
     </g>
     <g id="text_1">
      <!-- No -->
      <g transform="translate(166.662886 410.402908) scale(0.24 -0.24)">
       <defs>
        <path id="TimesNewRomanPSMT-4e" d="M -84 4238 
L 1066 4238 
L 3656 1059 
L 3656 3503 
Q 3656 3894 3569 3991 
Q 3453 4122 3203 4122 
L 3056 4122 
L 3056 4238 
L 4531 4238 
L 4531 4122 
L 4381 4122 
Q 4113 4122 4000 3959 
Q 3931 3859 3931 3503 
L 3931 -69 
L 3819 -69 
L 1025 3344 
L 1025 734 
Q 1025 344 1109 247 
Q 1228 116 1475 116 
L 1625 116 
L 1625 0 
L 150 0 
L 150 116 
L 297 116 
Q 569 116 681 278 
Q 750 378 750 734 
L 750 3681 
Q 566 3897 470 3965 
Q 375 4034 191 4094 
Q 100 4122 -84 4122 
L -84 4238 
z
" transform="scale(0.015625)"/>
        <path id="TimesNewRomanPSMT-6f" d="M 1600 2947 
Q 2250 2947 2644 2453 
Q 2978 2031 2978 1484 
Q 2978 1100 2793 706 
Q 2609 313 2286 112 
Q 1963 -88 1566 -88 
Q 919 -88 538 428 
Q 216 863 216 1403 
Q 216 1797 411 2186 
Q 606 2575 925 2761 
Q 1244 2947 1600 2947 
z
M 1503 2744 
Q 1338 2744 1170 2645 
Q 1003 2547 900 2300 
Q 797 2053 797 1666 
Q 797 1041 1045 587 
Q 1294 134 1700 134 
Q 2003 134 2200 384 
Q 2397 634 2397 1244 
Q 2397 2006 2069 2444 
Q 1847 2744 1503 2744 
z
" transform="scale(0.015625)"/>
       </defs>
       <use xlink:href="#TimesNewRomanPSMT-4e"/>
       <use xlink:href="#TimesNewRomanPSMT-6f" transform="translate(72.216797 0)"/>
      </g>
     </g>
    </g>
    <g id="xtick_2">
     <g id="line2d_2">
      <g>
       <use xlink:href="#m7ce636003c" x="349.046783" y="386.737908" style="stroke: #000000; stroke-width: 1.5"/>
      </g>
     </g>
     <g id="text_2">
      <!-- Yes -->
      <g transform="translate(331.583033 410.402908) scale(0.24 -0.24)">
       <defs>
        <path id="TimesNewRomanPSMT-59" d="M 3050 4238 
L 4528 4238 
L 4528 4122 
L 4447 4122 
Q 4366 4122 4209 4050 
Q 4053 3978 3925 3843 
Q 3797 3709 3609 3406 
L 2588 1797 
L 2588 734 
Q 2588 344 2675 247 
Q 2794 116 3050 116 
L 3188 116 
L 3188 0 
L 1388 0 
L 1388 116 
L 1538 116 
Q 1806 116 1919 278 
Q 1988 378 1988 734 
L 1988 1738 
L 825 3513 
Q 619 3825 545 3903 
Q 472 3981 241 4091 
Q 178 4122 59 4122 
L 59 4238 
L 1872 4238 
L 1872 4122 
L 1778 4122 
Q 1631 4122 1507 4053 
Q 1384 3984 1384 3847 
Q 1384 3734 1575 3441 
L 2459 2075 
L 3291 3381 
Q 3478 3675 3478 3819 
Q 3478 3906 3433 3975 
Q 3388 4044 3303 4083 
Q 3219 4122 3050 4122 
L 3050 4238 
z
" transform="scale(0.015625)"/>
        <path id="TimesNewRomanPSMT-65" d="M 681 1784 
Q 678 1147 991 784 
Q 1303 422 1725 422 
Q 2006 422 2214 576 
Q 2422 731 2563 1106 
L 2659 1044 
Q 2594 616 2278 264 
Q 1963 -88 1488 -88 
Q 972 -88 605 314 
Q 238 716 238 1394 
Q 238 2128 614 2539 
Q 991 2950 1559 2950 
Q 2041 2950 2350 2633 
Q 2659 2316 2659 1784 
L 681 1784 
z
M 681 1966 
L 2006 1966 
Q 1991 2241 1941 2353 
Q 1863 2528 1708 2628 
Q 1553 2728 1384 2728 
Q 1125 2728 920 2526 
Q 716 2325 681 1966 
z
" transform="scale(0.015625)"/>
        <path id="TimesNewRomanPSMT-73" d="M 2050 2947 
L 2050 1972 
L 1947 1972 
Q 1828 2431 1642 2597 
Q 1456 2763 1169 2763 
Q 950 2763 815 2647 
Q 681 2531 681 2391 
Q 681 2216 781 2091 
Q 878 1963 1175 1819 
L 1631 1597 
Q 2266 1288 2266 781 
Q 2266 391 1970 151 
Q 1675 -88 1309 -88 
Q 1047 -88 709 6 
Q 606 38 541 38 
Q 469 38 428 -44 
L 325 -44 
L 325 978 
L 428 978 
Q 516 541 762 319 
Q 1009 97 1316 97 
Q 1531 97 1667 223 
Q 1803 350 1803 528 
Q 1803 744 1651 891 
Q 1500 1038 1047 1263 
Q 594 1488 453 1669 
Q 313 1847 313 2119 
Q 313 2472 555 2709 
Q 797 2947 1181 2947 
Q 1350 2947 1591 2875 
Q 1750 2828 1803 2828 
Q 1853 2828 1881 2850 
Q 1909 2872 1947 2947 
L 2050 2947 
z
" transform="scale(0.015625)"/>
       </defs>
       <use xlink:href="#TimesNewRomanPSMT-59"/>
       <use xlink:href="#TimesNewRomanPSMT-65" transform="translate(62.216797 0)"/>
       <use xlink:href="#TimesNewRomanPSMT-73" transform="translate(106.601562 0)"/>
      </g>
     </g>
    </g>
    <g id="text_3">
     <!-- Predicted -->
     <g transform="translate(220.177335 434.104783) scale(0.22 -0.22)">
      <defs>
       <path id="TimesNewRomanPS-BoldMT-50" d="M 1728 1919 
L 1728 744 
Q 1728 400 1770 311 
Q 1813 222 1920 169 
Q 2028 116 2316 116 
L 2316 0 
L 163 0 
L 163 116 
Q 456 116 561 170 
Q 666 225 708 312 
Q 750 400 750 744 
L 750 3494 
Q 750 3838 708 3927 
Q 666 4016 559 4069 
Q 453 4122 163 4122 
L 163 4238 
L 2009 4238 
Q 2922 4238 3319 3913 
Q 3716 3588 3716 3100 
Q 3716 2688 3459 2394 
Q 3203 2100 2753 1994 
Q 2450 1919 1728 1919 
z
M 1728 3994 
L 1728 2163 
Q 1831 2156 1884 2156 
Q 2266 2156 2472 2382 
Q 2678 2609 2678 3084 
Q 2678 3556 2472 3775 
Q 2266 3994 1856 3994 
L 1728 3994 
z
" transform="scale(0.015625)"/>
       <path id="TimesNewRomanPS-BoldMT-72" d="M 1428 2922 
L 1428 2259 
Q 1719 2713 1937 2861 
Q 2156 3009 2359 3009 
Q 2534 3009 2639 2901 
Q 2744 2794 2744 2597 
Q 2744 2388 2642 2272 
Q 2541 2156 2397 2156 
Q 2231 2156 2109 2262 
Q 1988 2369 1966 2381 
Q 1934 2400 1894 2400 
Q 1803 2400 1722 2331 
Q 1594 2225 1528 2028 
Q 1428 1725 1428 1359 
L 1428 688 
L 1431 513 
Q 1431 334 1453 284 
Q 1491 200 1564 161 
Q 1638 122 1813 113 
L 1813 0 
L 234 0 
L 234 113 
Q 425 128 492 217 
Q 559 306 559 688 
L 559 2303 
Q 559 2553 534 2622 
Q 503 2709 443 2750 
Q 384 2791 234 2806 
L 234 2922 
L 1428 2922 
z
" transform="scale(0.015625)"/>
       <path id="TimesNewRomanPS-BoldMT-65" d="M 2691 1566 
L 1088 1566 
Q 1116 984 1397 647 
Q 1613 388 1916 388 
Q 2103 388 2256 492 
Q 2409 597 2584 869 
L 2691 800 
Q 2453 316 2165 114 
Q 1878 -88 1500 -88 
Q 850 -88 516 413 
Q 247 816 247 1413 
Q 247 2144 642 2576 
Q 1038 3009 1569 3009 
Q 2013 3009 2339 2645 
Q 2666 2281 2691 1566 
z
M 1922 1775 
Q 1922 2278 1867 2465 
Q 1813 2653 1697 2750 
Q 1631 2806 1522 2806 
Q 1359 2806 1256 2647 
Q 1072 2369 1072 1884 
L 1072 1775 
L 1922 1775 
z
" transform="scale(0.015625)"/>
       <path id="TimesNewRomanPS-BoldMT-64" d="M 3056 4238 
L 3056 875 
Q 3056 534 3075 472 
Q 3100 369 3170 319 
Q 3241 269 3416 256 
L 3416 153 
L 2181 -88 
L 2181 375 
Q 1959 106 1786 9 
Q 1613 -88 1394 -88 
Q 834 -88 509 413 
Q 247 819 247 1409 
Q 247 1881 409 2254 
Q 572 2628 855 2818 
Q 1138 3009 1463 3009 
Q 1672 3009 1834 2928 
Q 1997 2847 2181 2644 
L 2181 3525 
Q 2181 3859 2153 3928 
Q 2116 4019 2041 4062 
Q 1966 4106 1759 4106 
L 1759 4238 
L 3056 4238 
z
M 2181 2256 
Q 1950 2700 1616 2700 
Q 1500 2700 1425 2638 
Q 1309 2541 1236 2297 
Q 1163 2053 1163 1550 
Q 1163 997 1244 731 
Q 1325 466 1466 347 
Q 1538 288 1663 288 
Q 1938 288 2181 719 
L 2181 2256 
z
" transform="scale(0.015625)"/>
       <path id="TimesNewRomanPS-BoldMT-69" d="M 919 4338 
Q 1122 4338 1262 4195 
Q 1403 4053 1403 3853 
Q 1403 3653 1261 3512 
Q 1119 3372 919 3372 
Q 719 3372 578 3512 
Q 438 3653 438 3853 
Q 438 4053 578 4195 
Q 719 4338 919 4338 
z
M 1356 2922 
L 1356 606 
Q 1356 297 1428 211 
Q 1500 125 1709 113 
L 1709 0 
L 131 0 
L 131 113 
Q 325 119 419 225 
Q 481 297 481 606 
L 481 2313 
Q 481 2622 409 2708 
Q 338 2794 131 2806 
L 131 2922 
L 1356 2922 
z
" transform="scale(0.015625)"/>
       <path id="TimesNewRomanPS-BoldMT-63" d="M 2600 753 
L 2697 678 
Q 2491 291 2183 101 
Q 1875 -88 1528 -88 
Q 944 -88 594 353 
Q 244 794 244 1413 
Q 244 2009 563 2463 
Q 947 3009 1622 3009 
Q 2075 3009 2342 2781 
Q 2609 2553 2609 2272 
Q 2609 2094 2501 1987 
Q 2394 1881 2219 1881 
Q 2034 1881 1914 2003 
Q 1794 2125 1766 2438 
Q 1747 2634 1675 2713 
Q 1603 2791 1506 2791 
Q 1356 2791 1250 2631 
Q 1088 2391 1088 1894 
Q 1088 1481 1219 1104 
Q 1350 728 1578 544 
Q 1750 409 1984 409 
Q 2138 409 2275 481 
Q 2413 553 2600 753 
z
" transform="scale(0.015625)"/>
       <path id="TimesNewRomanPS-BoldMT-74" d="M 1375 3991 
L 1375 2922 
L 2069 2922 
L 2069 2613 
L 1375 2613 
L 1375 809 
Q 1375 556 1398 482 
Q 1422 409 1481 364 
Q 1541 319 1591 319 
Q 1794 319 1975 628 
L 2069 559 
Q 1816 -41 1247 -41 
Q 969 -41 776 114 
Q 584 269 531 459 
Q 500 566 500 1034 
L 500 2613 
L 119 2613 
L 119 2722 
Q 513 3000 789 3306 
Q 1066 3613 1272 3991 
L 1375 3991 
z
" transform="scale(0.015625)"/>
      </defs>
      <use xlink:href="#TimesNewRomanPS-BoldMT-50"/>
      <use xlink:href="#TimesNewRomanPS-BoldMT-72" transform="translate(61.083984 0)"/>
      <use xlink:href="#TimesNewRomanPS-BoldMT-65" transform="translate(103.71875 0)"/>
      <use xlink:href="#TimesNewRomanPS-BoldMT-64" transform="translate(148.103516 0)"/>
      <use xlink:href="#TimesNewRomanPS-BoldMT-69" transform="translate(203.71875 0)"/>
      <use xlink:href="#TimesNewRomanPS-BoldMT-63" transform="translate(231.501953 0)"/>
      <use xlink:href="#TimesNewRomanPS-BoldMT-74" transform="translate(275.886719 0)"/>
      <use xlink:href="#TimesNewRomanPS-BoldMT-65" transform="translate(309.1875 0)"/>
      <use xlink:href="#TimesNewRomanPS-BoldMT-64" transform="translate(353.572266 0)"/>
     </g>
    </g>
   </g>
   <g id="matplotlib.axis_2">
    <g id="ytick_1">
     <g id="line2d_3">
      <defs>
       <path id="m856ad41ca0" d="M 0 0 
L -3.5 0 
" style="stroke: #000000; stroke-width: 1.5"/>
      </defs>
      <g>
       <use xlink:href="#m856ad41ca0" x="97.470313" y="155.711821" style="stroke: #000000; stroke-width: 1.5"/>
      </g>
     </g>
     <g id="text_4">
      <!-- No -->
      <g transform="translate(85.336563 170.378071) rotate(-90) scale(0.24 -0.24)">
       <use xlink:href="#TimesNewRomanPSMT-4e"/>
       <use xlink:href="#TimesNewRomanPSMT-6f" transform="translate(72.216797 0)"/>
      </g>
     </g>
    </g>
    <g id="ytick_2">
     <g id="line2d_4">
      <g>
       <use xlink:href="#m856ad41ca0" x="97.470313" y="309.729212" style="stroke: #000000; stroke-width: 1.5"/>
      </g>
     </g>
     <g id="text_5">
      <!-- Yes -->
      <g transform="translate(85.336563 327.192962) rotate(-90) scale(0.24 -0.24)">
       <use xlink:href="#TimesNewRomanPSMT-59"/>
       <use xlink:href="#TimesNewRomanPSMT-65" transform="translate(62.216797 0)"/>
       <use xlink:href="#TimesNewRomanPSMT-73" transform="translate(106.601562 0)"/>
      </g>
     </g>
    </g>
    <g id="text_6">
     <!-- True -->
     <g transform="translate(59.965625 255.129579) rotate(-90) scale(0.22 -0.22)">
      <defs>
       <path id="TimesNewRomanPS-BoldMT-54" d="M 4038 4238 
L 4038 3091 
L 3925 3091 
Q 3825 3488 3703 3661 
Q 3581 3834 3369 3938 
Q 3250 3994 2953 3994 
L 2638 3994 
L 2638 725 
Q 2638 400 2673 319 
Q 2709 238 2814 177 
Q 2919 116 3100 116 
L 3241 116 
L 3241 0 
L 1022 0 
L 1022 116 
L 1163 116 
Q 1347 116 1459 181 
Q 1541 225 1588 331 
Q 1622 406 1622 725 
L 1622 3994 
L 1316 3994 
Q 888 3994 694 3813 
Q 422 3559 350 3091 
L 231 3091 
L 231 4238 
L 4038 4238 
z
" transform="scale(0.015625)"/>
       <path id="TimesNewRomanPS-BoldMT-75" d="M 3038 2922 
L 3038 634 
Q 3038 300 3100 217 
Q 3163 134 3353 113 
L 3353 0 
L 2163 0 
L 2163 391 
Q 1953 141 1743 26 
Q 1534 -88 1275 -88 
Q 1028 -88 836 64 
Q 644 216 578 419 
Q 513 622 513 1128 
L 513 2288 
Q 513 2619 452 2700 
Q 391 2781 197 2806 
L 197 2922 
L 1388 2922 
L 1388 925 
Q 1388 613 1417 522 
Q 1447 431 1511 384 
Q 1575 338 1659 338 
Q 1772 338 1863 397 
Q 1988 478 2163 725 
L 2163 2288 
Q 2163 2619 2102 2700 
Q 2041 2781 1847 2806 
L 1847 2922 
L 3038 2922 
z
" transform="scale(0.015625)"/>
      </defs>
      <use xlink:href="#TimesNewRomanPS-BoldMT-54"/>
      <use xlink:href="#TimesNewRomanPS-BoldMT-72" transform="translate(59.324219 0)"/>
      <use xlink:href="#TimesNewRomanPS-BoldMT-75" transform="translate(103.708984 0)"/>
      <use xlink:href="#TimesNewRomanPS-BoldMT-65" transform="translate(159.324219 0)"/>
     </g>
    </g>
   </g>
   <g id="text_7">
    <!-- 51 -->
    <g style="fill: #262626" transform="translate(165.329136 146.723821) scale(0.32 -0.32)">
     <defs>
      <path id="TimesNewRomanPS-BoldMT-35" d="M 975 4238 
L 2959 4238 
L 2644 3431 
L 975 3431 
L 816 3009 
Q 1894 2969 2475 2472 
Q 2953 2063 2953 1453 
Q 2953 1063 2731 689 
Q 2509 316 2106 114 
Q 1703 -88 1222 -88 
Q 703 -88 425 106 
Q 231 244 231 419 
Q 231 553 332 656 
Q 434 759 569 759 
Q 691 759 816 709 
Q 941 659 1244 447 
Q 1434 316 1572 266 
Q 1669 228 1791 228 
Q 2047 228 2226 415 
Q 2406 603 2406 866 
Q 2406 1416 1856 1759 
Q 1306 2103 469 2103 
Q 384 2103 216 2100 
L 975 4238 
z
" transform="scale(0.015625)"/>
      <path id="TimesNewRomanPS-BoldMT-31" d="M 2084 4325 
L 2084 859 
Q 2084 469 2118 361 
Q 2153 253 2262 184 
Q 2372 116 2613 116 
L 2709 116 
L 2709 0 
L 478 0 
L 478 116 
L 591 116 
Q 863 116 978 178 
Q 1094 241 1134 350 
Q 1175 459 1175 859 
L 1175 3056 
Q 1175 3350 1147 3423 
Q 1119 3497 1042 3548 
Q 966 3600 866 3600 
Q 706 3600 478 3500 
L 422 3613 
L 1981 4325 
L 2084 4325 
z
" transform="scale(0.015625)"/>
     </defs>
     <use xlink:href="#TimesNewRomanPS-BoldMT-35"/>
     <use xlink:href="#TimesNewRomanPS-BoldMT-31" transform="translate(50 0)"/>
    </g>
    <!-- (62.2%) -->
    <g style="fill: #262626" transform="translate(126.674136 179.044821) scale(0.32 -0.32)">
     <defs>
      <path id="TimesNewRomanPS-BoldMT-28" d="M 2056 4334 
L 2056 4191 
Q 1731 3978 1578 3775 
Q 1366 3494 1247 3053 
Q 1097 2506 1097 1525 
Q 1097 600 1233 87 
Q 1369 -425 1603 -741 
Q 1766 -959 2056 -1125 
L 2056 -1281 
Q 1303 -1028 779 -248 
Q 256 531 256 1544 
Q 256 2544 778 3314 
Q 1300 4084 2056 4334 
z
" transform="scale(0.015625)"/>
      <path id="TimesNewRomanPS-BoldMT-36" d="M 3006 4325 
L 3006 4238 
Q 2441 4094 2098 3867 
Q 1756 3641 1557 3317 
Q 1359 2994 1250 2516 
Q 1388 2609 1478 2638 
Q 1681 2700 1888 2700 
Q 2363 2700 2680 2354 
Q 2997 2009 2997 1413 
Q 2997 994 2825 644 
Q 2653 294 2337 103 
Q 2022 -88 1663 -88 
Q 1272 -88 940 126 
Q 609 341 423 753 
Q 238 1166 238 1650 
Q 238 2363 580 2977 
Q 922 3591 1551 3955 
Q 2181 4319 3006 4325 
z
M 1209 2263 
Q 1184 1831 1184 1631 
Q 1184 1200 1267 797 
Q 1350 394 1494 231 
Q 1597 116 1738 116 
Q 1881 116 1993 283 
Q 2106 450 2106 963 
Q 2106 1825 1897 2153 
Q 1763 2366 1534 2366 
Q 1409 2366 1209 2263 
z
" transform="scale(0.015625)"/>
      <path id="TimesNewRomanPS-BoldMT-32" d="M 2650 0 
L 156 0 
L 156 69 
Q 1303 1434 1548 1906 
Q 1794 2378 1794 2828 
Q 1794 3156 1591 3373 
Q 1388 3591 1094 3591 
Q 613 3591 347 3109 
L 231 3150 
Q 400 3750 744 4037 
Q 1088 4325 1538 4325 
Q 1859 4325 2125 4175 
Q 2391 4025 2541 3764 
Q 2691 3503 2691 3275 
Q 2691 2859 2459 2431 
Q 2144 1853 1081 819 
L 1997 819 
Q 2334 819 2436 847 
Q 2538 875 2603 942 
Q 2669 1009 2775 1225 
L 2888 1225 
L 2650 0 
z
" transform="scale(0.015625)"/>
      <path id="TimesNewRomanPS-BoldMT-2e" d="M 800 963 
Q 1019 963 1170 809 
Q 1322 656 1322 441 
Q 1322 225 1169 73 
Q 1016 -78 800 -78 
Q 584 -78 432 73 
Q 281 225 281 441 
Q 281 656 432 809 
Q 584 963 800 963 
z
" transform="scale(0.015625)"/>
      <path id="TimesNewRomanPS-BoldMT-25" d="M 4916 4334 
L 1906 -178 
L 1488 -178 
L 4494 4334 
L 4916 4334 
z
M 1494 4334 
Q 1938 4334 2242 4020 
Q 2547 3706 2547 3209 
Q 2547 2700 2240 2383 
Q 1934 2066 1481 2066 
Q 1034 2066 739 2372 
Q 444 2678 444 3178 
Q 444 3694 747 4014 
Q 1050 4334 1494 4334 
z
M 1494 4169 
Q 1425 4169 1381 4128 
Q 1303 4056 1264 3879 
Q 1225 3703 1225 3150 
Q 1225 2709 1278 2469 
Q 1309 2331 1384 2263 
Q 1431 2222 1494 2222 
Q 1563 2222 1603 2259 
Q 1675 2325 1709 2472 
Q 1763 2709 1763 3138 
Q 1763 3663 1713 3897 
Q 1678 4059 1600 4134 
Q 1563 4169 1494 4169 
z
M 4894 2097 
Q 5347 2097 5651 1786 
Q 5956 1475 5956 972 
Q 5956 463 5647 144 
Q 5338 -175 4900 -175 
Q 4466 -175 4161 144 
Q 3856 463 3856 963 
Q 3856 1466 4153 1781 
Q 4450 2097 4894 2097 
z
M 4903 1934 
Q 4841 1934 4797 1897 
Q 4722 1828 4681 1658 
Q 4641 1488 4641 1006 
Q 4641 494 4688 269 
Q 4722 109 4803 38 
Q 4844 0 4909 0 
Q 4969 0 5006 34 
Q 5084 106 5122 269 
Q 5175 497 5175 959 
Q 5175 1447 5125 1672 
Q 5088 1834 5013 1900 
Q 4975 1934 4903 1934 
z
" transform="scale(0.015625)"/>
      <path id="TimesNewRomanPS-BoldMT-29" d="M 78 -1281 
L 78 -1138 
Q 403 -922 556 -719 
Q 766 -438 888 0 
Q 1038 550 1038 1531 
Q 1038 2456 902 2967 
Q 766 3478 531 3794 
Q 369 4013 78 4178 
L 78 4334 
Q 831 4081 1354 3301 
Q 1878 2522 1878 1509 
Q 1878 513 1354 -257 
Q 831 -1028 78 -1281 
z
" transform="scale(0.015625)"/>
     </defs>
     <use xlink:href="#TimesNewRomanPS-BoldMT-28"/>
     <use xlink:href="#TimesNewRomanPS-BoldMT-36" transform="translate(33.300781 0)"/>
     <use xlink:href="#TimesNewRomanPS-BoldMT-32" transform="translate(83.300781 0)"/>
     <use xlink:href="#TimesNewRomanPS-BoldMT-2e" transform="translate(133.300781 0)"/>
     <use xlink:href="#TimesNewRomanPS-BoldMT-32" transform="translate(158.300781 0)"/>
     <use xlink:href="#TimesNewRomanPS-BoldMT-25" transform="translate(208.300781 0)"/>
     <use xlink:href="#TimesNewRomanPS-BoldMT-29" transform="translate(308.300781 0)"/>
    </g>
   </g>
   <g id="text_8">
    <!-- 31 -->
    <g style="fill: #262626" transform="translate(333.046783 146.723821) scale(0.32 -0.32)">
     <defs>
      <path id="TimesNewRomanPS-BoldMT-33" d="M 947 2125 
L 947 2234 
Q 1303 2338 1440 2427 
Q 1578 2516 1678 2698 
Q 1778 2881 1778 3069 
Q 1778 3328 1589 3514 
Q 1400 3700 1119 3700 
Q 681 3700 375 3238 
L 259 3278 
Q 484 3800 836 4062 
Q 1188 4325 1619 4325 
Q 2059 4325 2345 4056 
Q 2631 3788 2631 3428 
Q 2631 3194 2498 2976 
Q 2366 2759 2081 2594 
Q 2447 2416 2639 2155 
Q 2831 1894 2831 1500 
Q 2831 838 2351 373 
Q 1872 -91 1066 -91 
Q 528 -91 281 88 
Q 103 213 103 409 
Q 103 553 206 654 
Q 309 756 444 756 
Q 547 756 638 713 
Q 688 688 992 439 
Q 1297 191 1563 191 
Q 1794 191 1959 373 
Q 2125 556 2125 838 
Q 2125 1266 1825 1627 
Q 1525 1988 947 2125 
z
" transform="scale(0.015625)"/>
     </defs>
     <use xlink:href="#TimesNewRomanPS-BoldMT-33"/>
     <use xlink:href="#TimesNewRomanPS-BoldMT-31" transform="translate(50 0)"/>
    </g>
    <!-- (37.8%) -->
    <g style="fill: #262626" transform="translate(294.391783 179.044821) scale(0.32 -0.32)">
     <defs>
      <path id="TimesNewRomanPS-BoldMT-37" d="M 1134 -88 
L 2288 3409 
L 1409 3409 
Q 894 3409 634 3275 
Q 453 3181 334 2922 
L 216 2922 
L 522 4238 
L 3047 4238 
L 1625 -88 
L 1134 -88 
z
" transform="scale(0.015625)"/>
      <path id="TimesNewRomanPS-BoldMT-38" d="M 2181 2394 
Q 2628 2066 2801 1783 
Q 2975 1500 2975 1134 
Q 2975 622 2589 267 
Q 2203 -88 1541 -88 
Q 913 -88 569 221 
Q 225 531 225 978 
Q 225 1319 423 1575 
Q 622 1831 1084 2044 
Q 581 2428 439 2672 
Q 297 2916 297 3238 
Q 297 3663 658 3986 
Q 1019 4309 1647 4309 
Q 2253 4309 2579 4023 
Q 2906 3738 2906 3338 
Q 2906 3038 2729 2808 
Q 2553 2578 2181 2394 
z
M 1944 2553 
Q 2059 2709 2115 2903 
Q 2172 3097 2172 3328 
Q 2172 3734 1997 3950 
Q 1866 4116 1634 4116 
Q 1425 4116 1278 3964 
Q 1131 3813 1131 3588 
Q 1131 3359 1295 3114 
Q 1459 2869 1944 2553 
z
M 1319 1894 
Q 1222 1806 1181 1734 
Q 1119 1625 1069 1415 
Q 1019 1206 1019 978 
Q 1019 684 1094 486 
Q 1169 288 1308 200 
Q 1447 113 1594 113 
Q 1822 113 1978 280 
Q 2134 447 2134 738 
Q 2134 1344 1319 1894 
z
" transform="scale(0.015625)"/>
     </defs>
     <use xlink:href="#TimesNewRomanPS-BoldMT-28"/>
     <use xlink:href="#TimesNewRomanPS-BoldMT-33" transform="translate(33.300781 0)"/>
     <use xlink:href="#TimesNewRomanPS-BoldMT-37" transform="translate(83.300781 0)"/>
     <use xlink:href="#TimesNewRomanPS-BoldMT-2e" transform="translate(133.300781 0)"/>
     <use xlink:href="#TimesNewRomanPS-BoldMT-38" transform="translate(158.300781 0)"/>
     <use xlink:href="#TimesNewRomanPS-BoldMT-25" transform="translate(208.300781 0)"/>
     <use xlink:href="#TimesNewRomanPS-BoldMT-29" transform="translate(308.300781 0)"/>
    </g>
   </g>
   <g id="text_9">
    <!-- 9 -->
    <g style="fill: #262626" transform="translate(173.329136 300.741212) scale(0.32 -0.32)">
     <defs>
      <path id="TimesNewRomanPS-BoldMT-39" d="M 197 -88 
L 197 0 
Q 716 119 1077 350 
Q 1438 581 1648 922 
Q 1859 1263 1944 1706 
Q 1750 1606 1614 1567 
Q 1478 1528 1328 1528 
Q 847 1528 526 1875 
Q 206 2222 206 2825 
Q 206 3244 379 3592 
Q 553 3941 875 4133 
Q 1197 4325 1544 4325 
Q 1916 4325 2247 4112 
Q 2578 3900 2775 3497 
Q 2972 3094 2972 2578 
Q 2972 1909 2651 1296 
Q 2331 684 1697 314 
Q 1063 -56 197 -88 
z
M 1991 1969 
Q 2022 2319 2022 2584 
Q 2022 3153 1891 3644 
Q 1816 3916 1669 4044 
Q 1591 4113 1466 4113 
Q 1309 4113 1222 3978 
Q 1100 3794 1100 3275 
Q 1100 2409 1306 2081 
Q 1441 1869 1669 1869 
Q 1791 1869 1991 1969 
z
" transform="scale(0.015625)"/>
     </defs>
     <use xlink:href="#TimesNewRomanPS-BoldMT-39"/>
    </g>
    <!-- (2.2%) -->
    <g style="fill: #262626" transform="translate(134.674136 333.062212) scale(0.32 -0.32)">
     <use xlink:href="#TimesNewRomanPS-BoldMT-28"/>
     <use xlink:href="#TimesNewRomanPS-BoldMT-32" transform="translate(33.300781 0)"/>
     <use xlink:href="#TimesNewRomanPS-BoldMT-2e" transform="translate(83.300781 0)"/>
     <use xlink:href="#TimesNewRomanPS-BoldMT-32" transform="translate(108.300781 0)"/>
     <use xlink:href="#TimesNewRomanPS-BoldMT-25" transform="translate(158.300781 0)"/>
     <use xlink:href="#TimesNewRomanPS-BoldMT-29" transform="translate(258.300781 0)"/>
    </g>
   </g>
   <g id="text_10">
    <!-- 405 -->
    <g style="fill: #ffffff" transform="translate(325.046783 300.741212) scale(0.32 -0.32)">
     <defs>
      <path id="TimesNewRomanPS-BoldMT-34" d="M 159 1597 
L 2172 4325 
L 2553 4325 
L 2553 1597 
L 2941 1597 
L 2941 950 
L 2553 950 
L 2553 0 
L 1694 0 
L 1694 950 
L 159 950 
L 159 1597 
z
M 463 1597 
L 1694 1597 
L 1694 3269 
L 463 1597 
z
" transform="scale(0.015625)"/>
      <path id="TimesNewRomanPS-BoldMT-30" d="M 2966 2119 
Q 2966 1484 2788 934 
Q 2681 597 2501 381 
Q 2322 166 2094 39 
Q 1866 -88 1597 -88 
Q 1291 -88 1044 68 
Q 797 225 606 516 
Q 469 728 366 1081 
Q 231 1559 231 2069 
Q 231 2759 425 3338 
Q 584 3816 909 4070 
Q 1234 4325 1597 4325 
Q 1966 4325 2286 4073 
Q 2606 3822 2756 3397 
Q 2966 2813 2966 2119 
z
M 2003 2125 
Q 2003 3238 1991 3422 
Q 1959 3856 1841 4009 
Q 1763 4109 1588 4109 
Q 1453 4109 1375 4034 
Q 1259 3925 1218 3648 
Q 1178 3372 1178 1719 
Q 1178 819 1241 513 
Q 1288 291 1375 216 
Q 1463 141 1606 141 
Q 1763 141 1841 241 
Q 1972 416 1991 781 
L 2003 2125 
z
" transform="scale(0.015625)"/>
     </defs>
     <use xlink:href="#TimesNewRomanPS-BoldMT-34"/>
     <use xlink:href="#TimesNewRomanPS-BoldMT-30" transform="translate(50 0)"/>
     <use xlink:href="#TimesNewRomanPS-BoldMT-35" transform="translate(100 0)"/>
    </g>
    <!-- (97.8%) -->
    <g style="fill: #ffffff" transform="translate(294.391783 333.062212) scale(0.32 -0.32)">
     <use xlink:href="#TimesNewRomanPS-BoldMT-28"/>
     <use xlink:href="#TimesNewRomanPS-BoldMT-39" transform="translate(33.300781 0)"/>
     <use xlink:href="#TimesNewRomanPS-BoldMT-37" transform="translate(83.300781 0)"/>
     <use xlink:href="#TimesNewRomanPS-BoldMT-2e" transform="translate(133.300781 0)"/>
     <use xlink:href="#TimesNewRomanPS-BoldMT-38" transform="translate(158.300781 0)"/>
     <use xlink:href="#TimesNewRomanPS-BoldMT-25" transform="translate(208.300781 0)"/>
     <use xlink:href="#TimesNewRomanPS-BoldMT-29" transform="translate(308.300781 0)"/>
    </g>
   </g>
  </g>
  <g id="axes_2">
   <g id="patch_3">
    <path d="M 499.992665 386.737908 
L 835.42796 386.737908 
L 835.42796 78.703125 
L 499.992665 78.703125 
z
" style="fill: #ffffff"/>
   </g>
   <g id="QuadMesh_2">
    <path d="M 499.992665 78.703125 
L 667.710312 78.703125 
L 667.710312 232.720516 
L 499.992665 232.720516 
L 499.992665 78.703125 
" clip-path="url(#p4cf58b980a)" style="fill: #eaf3fb"/>
    <path d="M 667.710312 78.703125 
L 835.42796 78.703125 
L 835.42796 232.720516 
L 667.710312 232.720516 
L 667.710312 78.703125 
" clip-path="url(#p4cf58b980a)" style="fill: #ebf3fb"/>
    <path d="M 499.992665 232.720516 
L 667.710312 232.720516 
L 667.710312 386.737908 
L 499.992665 386.737908 
L 499.992665 232.720516 
" clip-path="url(#p4cf58b980a)" style="fill: #f7fbff"/>
    <path d="M 667.710312 232.720516 
L 835.42796 232.720516 
L 835.42796 386.737908 
L 667.710312 386.737908 
L 667.710312 232.720516 
" clip-path="url(#p4cf58b980a)" style="fill: #08306b"/>
   </g>
   <g id="matplotlib.axis_3">
    <g id="xtick_3">
     <g id="line2d_5">
      <g>
       <use xlink:href="#m7ce636003c" x="583.851489" y="386.737908" style="stroke: #000000; stroke-width: 1.5"/>
      </g>
     </g>
     <g id="text_11">
      <!-- No -->
      <g transform="translate(569.185239 410.402908) scale(0.24 -0.24)">
       <use xlink:href="#TimesNewRomanPSMT-4e"/>
       <use xlink:href="#TimesNewRomanPSMT-6f" transform="translate(72.216797 0)"/>
      </g>
     </g>
    </g>
    <g id="xtick_4">
     <g id="line2d_6">
      <g>
       <use xlink:href="#m7ce636003c" x="751.569136" y="386.737908" style="stroke: #000000; stroke-width: 1.5"/>
      </g>
     </g>
     <g id="text_12">
      <!-- Yes -->
      <g transform="translate(734.105386 410.402908) scale(0.24 -0.24)">
       <use xlink:href="#TimesNewRomanPSMT-59"/>
       <use xlink:href="#TimesNewRomanPSMT-65" transform="translate(62.216797 0)"/>
       <use xlink:href="#TimesNewRomanPSMT-73" transform="translate(106.601562 0)"/>
      </g>
     </g>
    </g>
    <g id="text_13">
     <!-- Predicted -->
     <g transform="translate(622.699687 434.104783) scale(0.22 -0.22)">
      <use xlink:href="#TimesNewRomanPS-BoldMT-50"/>
      <use xlink:href="#TimesNewRomanPS-BoldMT-72" transform="translate(61.083984 0)"/>
      <use xlink:href="#TimesNewRomanPS-BoldMT-65" transform="translate(103.71875 0)"/>
      <use xlink:href="#TimesNewRomanPS-BoldMT-64" transform="translate(148.103516 0)"/>
      <use xlink:href="#TimesNewRomanPS-BoldMT-69" transform="translate(203.71875 0)"/>
      <use xlink:href="#TimesNewRomanPS-BoldMT-63" transform="translate(231.501953 0)"/>
      <use xlink:href="#TimesNewRomanPS-BoldMT-74" transform="translate(275.886719 0)"/>
      <use xlink:href="#TimesNewRomanPS-BoldMT-65" transform="translate(309.1875 0)"/>
      <use xlink:href="#TimesNewRomanPS-BoldMT-64" transform="translate(353.572266 0)"/>
     </g>
    </g>
   </g>
   <g id="matplotlib.axis_4">
    <g id="ytick_3">
     <g id="line2d_7">
      <g>
       <use xlink:href="#m856ad41ca0" x="499.992665" y="155.711821" style="stroke: #000000; stroke-width: 1.5"/>
      </g>
     </g>
     <g id="text_14">
      <!-- No -->
      <g transform="translate(487.858915 170.378071) rotate(-90) scale(0.24 -0.24)">
       <use xlink:href="#TimesNewRomanPSMT-4e"/>
       <use xlink:href="#TimesNewRomanPSMT-6f" transform="translate(72.216797 0)"/>
      </g>
     </g>
    </g>
    <g id="ytick_4">
     <g id="line2d_8">
      <g>
       <use xlink:href="#m856ad41ca0" x="499.992665" y="309.729212" style="stroke: #000000; stroke-width: 1.5"/>
      </g>
     </g>
     <g id="text_15">
      <!-- Yes -->
      <g transform="translate(487.858915 327.192962) rotate(-90) scale(0.24 -0.24)">
       <use xlink:href="#TimesNewRomanPSMT-59"/>
       <use xlink:href="#TimesNewRomanPSMT-65" transform="translate(62.216797 0)"/>
       <use xlink:href="#TimesNewRomanPSMT-73" transform="translate(106.601562 0)"/>
      </g>
     </g>
    </g>
    <g id="text_16">
     <!-- True -->
     <g transform="translate(462.487978 255.129579) rotate(-90) scale(0.22 -0.22)">
      <use xlink:href="#TimesNewRomanPS-BoldMT-54"/>
      <use xlink:href="#TimesNewRomanPS-BoldMT-72" transform="translate(59.324219 0)"/>
      <use xlink:href="#TimesNewRomanPS-BoldMT-75" transform="translate(103.708984 0)"/>
      <use xlink:href="#TimesNewRomanPS-BoldMT-65" transform="translate(159.324219 0)"/>
     </g>
    </g>
   </g>
   <g id="text_17">
    <!-- 38 -->
    <g style="fill: #262626" transform="translate(567.851489 146.723821) scale(0.32 -0.32)">
     <use xlink:href="#TimesNewRomanPS-BoldMT-33"/>
     <use xlink:href="#TimesNewRomanPS-BoldMT-38" transform="translate(50 0)"/>
    </g>
    <!-- (51.4%) -->
    <g style="fill: #262626" transform="translate(529.196489 179.044821) scale(0.32 -0.32)">
     <use xlink:href="#TimesNewRomanPS-BoldMT-28"/>
     <use xlink:href="#TimesNewRomanPS-BoldMT-35" transform="translate(33.300781 0)"/>
     <use xlink:href="#TimesNewRomanPS-BoldMT-31" transform="translate(83.300781 0)"/>
     <use xlink:href="#TimesNewRomanPS-BoldMT-2e" transform="translate(133.300781 0)"/>
     <use xlink:href="#TimesNewRomanPS-BoldMT-34" transform="translate(158.300781 0)"/>
     <use xlink:href="#TimesNewRomanPS-BoldMT-25" transform="translate(208.300781 0)"/>
     <use xlink:href="#TimesNewRomanPS-BoldMT-29" transform="translate(308.300781 0)"/>
    </g>
   </g>
   <g id="text_18">
    <!-- 36 -->
    <g style="fill: #262626" transform="translate(735.569136 146.723821) scale(0.32 -0.32)">
     <use xlink:href="#TimesNewRomanPS-BoldMT-33"/>
     <use xlink:href="#TimesNewRomanPS-BoldMT-36" transform="translate(50 0)"/>
    </g>
    <!-- (48.6%) -->
    <g style="fill: #262626" transform="translate(696.914136 179.044821) scale(0.32 -0.32)">
     <use xlink:href="#TimesNewRomanPS-BoldMT-28"/>
     <use xlink:href="#TimesNewRomanPS-BoldMT-34" transform="translate(33.300781 0)"/>
     <use xlink:href="#TimesNewRomanPS-BoldMT-38" transform="translate(83.300781 0)"/>
     <use xlink:href="#TimesNewRomanPS-BoldMT-2e" transform="translate(133.300781 0)"/>
     <use xlink:href="#TimesNewRomanPS-BoldMT-36" transform="translate(158.300781 0)"/>
     <use xlink:href="#TimesNewRomanPS-BoldMT-25" transform="translate(208.300781 0)"/>
     <use xlink:href="#TimesNewRomanPS-BoldMT-29" transform="translate(308.300781 0)"/>
    </g>
   </g>
   <g id="text_19">
    <!-- 12 -->
    <g style="fill: #262626" transform="translate(567.851489 300.741212) scale(0.32 -0.32)">
     <use xlink:href="#TimesNewRomanPS-BoldMT-31"/>
     <use xlink:href="#TimesNewRomanPS-BoldMT-32" transform="translate(50 0)"/>
    </g>
    <!-- (2.8%) -->
    <g style="fill: #262626" transform="translate(537.196489 333.062212) scale(0.32 -0.32)">
     <use xlink:href="#TimesNewRomanPS-BoldMT-28"/>
     <use xlink:href="#TimesNewRomanPS-BoldMT-32" transform="translate(33.300781 0)"/>
     <use xlink:href="#TimesNewRomanPS-BoldMT-2e" transform="translate(83.300781 0)"/>
     <use xlink:href="#TimesNewRomanPS-BoldMT-38" transform="translate(108.300781 0)"/>
     <use xlink:href="#TimesNewRomanPS-BoldMT-25" transform="translate(158.300781 0)"/>
     <use xlink:href="#TimesNewRomanPS-BoldMT-29" transform="translate(258.300781 0)"/>
    </g>
   </g>
   <g id="text_20">
    <!-- 410 -->
    <g style="fill: #ffffff" transform="translate(727.569136 300.741212) scale(0.32 -0.32)">
     <use xlink:href="#TimesNewRomanPS-BoldMT-34"/>
     <use xlink:href="#TimesNewRomanPS-BoldMT-31" transform="translate(50 0)"/>
     <use xlink:href="#TimesNewRomanPS-BoldMT-30" transform="translate(100 0)"/>
    </g>
    <!-- (97.2%) -->
    <g style="fill: #ffffff" transform="translate(696.914136 333.062212) scale(0.32 -0.32)">
     <use xlink:href="#TimesNewRomanPS-BoldMT-28"/>
     <use xlink:href="#TimesNewRomanPS-BoldMT-39" transform="translate(33.300781 0)"/>
     <use xlink:href="#TimesNewRomanPS-BoldMT-37" transform="translate(83.300781 0)"/>
     <use xlink:href="#TimesNewRomanPS-BoldMT-2e" transform="translate(133.300781 0)"/>
     <use xlink:href="#TimesNewRomanPS-BoldMT-32" transform="translate(158.300781 0)"/>
     <use xlink:href="#TimesNewRomanPS-BoldMT-25" transform="translate(208.300781 0)"/>
     <use xlink:href="#TimesNewRomanPS-BoldMT-29" transform="translate(308.300781 0)"/>
    </g>
   </g>
  </g>
  <g id="axes_3">
   <g id="patch_4">
    <path d="M 902.515018 386.737908 
L 1237.950313 386.737908 
L 1237.950313 78.703125 
L 902.515018 78.703125 
z
" style="fill: #ffffff"/>
   </g>
   <g id="QuadMesh_3">
    <path d="M 902.515018 78.703125 
L 1070.232665 78.703125 
L 1070.232665 232.720516 
L 902.515018 232.720516 
L 902.515018 78.703125 
" clip-path="url(#pb927caec36)" style="fill: #f7fbff"/>
    <path d="M 1070.232665 78.703125 
L 1237.950313 78.703125 
L 1237.950313 232.720516 
L 1070.232665 232.720516 
L 1070.232665 78.703125 
" clip-path="url(#pb927caec36)" style="fill: #e9f2fa"/>
    <path d="M 902.515018 232.720516 
L 1070.232665 232.720516 
L 1070.232665 386.737908 
L 902.515018 386.737908 
L 902.515018 232.720516 
" clip-path="url(#pb927caec36)" style="fill: #add0e6"/>
    <path d="M 1070.232665 232.720516 
L 1237.950313 232.720516 
L 1237.950313 386.737908 
L 1070.232665 386.737908 
L 1070.232665 232.720516 
" clip-path="url(#pb927caec36)" style="fill: #08306b"/>
   </g>
   <g id="matplotlib.axis_5">
    <g id="xtick_5">
     <g id="line2d_9">
      <g>
       <use xlink:href="#m7ce636003c" x="986.373842" y="386.737908" style="stroke: #000000; stroke-width: 1.5"/>
      </g>
     </g>
     <g id="text_21">
      <!-- No -->
      <g transform="translate(971.707592 410.402908) scale(0.24 -0.24)">
       <use xlink:href="#TimesNewRomanPSMT-4e"/>
       <use xlink:href="#TimesNewRomanPSMT-6f" transform="translate(72.216797 0)"/>
      </g>
     </g>
    </g>
    <g id="xtick_6">
     <g id="line2d_10">
      <g>
       <use xlink:href="#m7ce636003c" x="1154.091489" y="386.737908" style="stroke: #000000; stroke-width: 1.5"/>
      </g>
     </g>
     <g id="text_22">
      <!-- Yes -->
      <g transform="translate(1136.627739 410.402908) scale(0.24 -0.24)">
       <use xlink:href="#TimesNewRomanPSMT-59"/>
       <use xlink:href="#TimesNewRomanPSMT-65" transform="translate(62.216797 0)"/>
       <use xlink:href="#TimesNewRomanPSMT-73" transform="translate(106.601562 0)"/>
      </g>
     </g>
    </g>
    <g id="text_23">
     <!-- Predicted -->
     <g transform="translate(1025.22204 434.104783) scale(0.22 -0.22)">
      <use xlink:href="#TimesNewRomanPS-BoldMT-50"/>
      <use xlink:href="#TimesNewRomanPS-BoldMT-72" transform="translate(61.083984 0)"/>
      <use xlink:href="#TimesNewRomanPS-BoldMT-65" transform="translate(103.71875 0)"/>
      <use xlink:href="#TimesNewRomanPS-BoldMT-64" transform="translate(148.103516 0)"/>
      <use xlink:href="#TimesNewRomanPS-BoldMT-69" transform="translate(203.71875 0)"/>
      <use xlink:href="#TimesNewRomanPS-BoldMT-63" transform="translate(231.501953 0)"/>
      <use xlink:href="#TimesNewRomanPS-BoldMT-74" transform="translate(275.886719 0)"/>
      <use xlink:href="#TimesNewRomanPS-BoldMT-65" transform="translate(309.1875 0)"/>
      <use xlink:href="#TimesNewRomanPS-BoldMT-64" transform="translate(353.572266 0)"/>
     </g>
    </g>
   </g>
   <g id="matplotlib.axis_6">
    <g id="ytick_5">
     <g id="line2d_11">
      <g>
       <use xlink:href="#m856ad41ca0" x="902.515018" y="155.711821" style="stroke: #000000; stroke-width: 1.5"/>
      </g>
     </g>
     <g id="text_24">
      <!-- No -->
      <g transform="translate(890.381268 170.378071) rotate(-90) scale(0.24 -0.24)">
       <use xlink:href="#TimesNewRomanPSMT-4e"/>
       <use xlink:href="#TimesNewRomanPSMT-6f" transform="translate(72.216797 0)"/>
      </g>
     </g>
    </g>
    <g id="ytick_6">
     <g id="line2d_12">
      <g>
       <use xlink:href="#m856ad41ca0" x="902.515018" y="309.729212" style="stroke: #000000; stroke-width: 1.5"/>
      </g>
     </g>
     <g id="text_25">
      <!-- Yes -->
      <g transform="translate(890.381268 327.192962) rotate(-90) scale(0.24 -0.24)">
       <use xlink:href="#TimesNewRomanPSMT-59"/>
       <use xlink:href="#TimesNewRomanPSMT-65" transform="translate(62.216797 0)"/>
       <use xlink:href="#TimesNewRomanPSMT-73" transform="translate(106.601562 0)"/>
      </g>
     </g>
    </g>
    <g id="text_26">
     <!-- True -->
     <g transform="translate(865.010331 255.129579) rotate(-90) scale(0.22 -0.22)">
      <use xlink:href="#TimesNewRomanPS-BoldMT-54"/>
      <use xlink:href="#TimesNewRomanPS-BoldMT-72" transform="translate(59.324219 0)"/>
      <use xlink:href="#TimesNewRomanPS-BoldMT-75" transform="translate(103.708984 0)"/>
      <use xlink:href="#TimesNewRomanPS-BoldMT-65" transform="translate(159.324219 0)"/>
     </g>
    </g>
   </g>
   <g id="text_27">
    <!-- 27 -->
    <g style="fill: #262626" transform="translate(970.373842 146.723821) scale(0.32 -0.32)">
     <use xlink:href="#TimesNewRomanPS-BoldMT-32"/>
     <use xlink:href="#TimesNewRomanPS-BoldMT-37" transform="translate(50 0)"/>
    </g>
    <!-- (36.5%) -->
    <g style="fill: #262626" transform="translate(931.718842 179.044821) scale(0.32 -0.32)">
     <use xlink:href="#TimesNewRomanPS-BoldMT-28"/>
     <use xlink:href="#TimesNewRomanPS-BoldMT-33" transform="translate(33.300781 0)"/>
     <use xlink:href="#TimesNewRomanPS-BoldMT-36" transform="translate(83.300781 0)"/>
     <use xlink:href="#TimesNewRomanPS-BoldMT-2e" transform="translate(133.300781 0)"/>
     <use xlink:href="#TimesNewRomanPS-BoldMT-35" transform="translate(158.300781 0)"/>
     <use xlink:href="#TimesNewRomanPS-BoldMT-25" transform="translate(208.300781 0)"/>
     <use xlink:href="#TimesNewRomanPS-BoldMT-29" transform="translate(308.300781 0)"/>
    </g>
   </g>
   <g id="text_28">
    <!-- 47 -->
    <g style="fill: #262626" transform="translate(1138.091489 146.723821) scale(0.32 -0.32)">
     <use xlink:href="#TimesNewRomanPS-BoldMT-34"/>
     <use xlink:href="#TimesNewRomanPS-BoldMT-37" transform="translate(50 0)"/>
    </g>
    <!-- (63.5%) -->
    <g style="fill: #262626" transform="translate(1099.436489 179.044821) scale(0.32 -0.32)">
     <use xlink:href="#TimesNewRomanPS-BoldMT-28"/>
     <use xlink:href="#TimesNewRomanPS-BoldMT-36" transform="translate(33.300781 0)"/>
     <use xlink:href="#TimesNewRomanPS-BoldMT-33" transform="translate(83.300781 0)"/>
     <use xlink:href="#TimesNewRomanPS-BoldMT-2e" transform="translate(133.300781 0)"/>
     <use xlink:href="#TimesNewRomanPS-BoldMT-35" transform="translate(158.300781 0)"/>
     <use xlink:href="#TimesNewRomanPS-BoldMT-25" transform="translate(208.300781 0)"/>
     <use xlink:href="#TimesNewRomanPS-BoldMT-29" transform="translate(308.300781 0)"/>
    </g>
   </g>
   <g id="text_29">
    <!-- 118 -->
    <g style="fill: #262626" transform="translate(963.253842 300.741212) scale(0.32 -0.32)">
     <use xlink:href="#TimesNewRomanPS-BoldMT-31"/>
     <use xlink:href="#TimesNewRomanPS-BoldMT-31" transform="translate(44.5 0)"/>
     <use xlink:href="#TimesNewRomanPS-BoldMT-38" transform="translate(94.5 0)"/>
    </g>
    <!-- (28.0%) -->
    <g style="fill: #262626" transform="translate(931.718842 333.062212) scale(0.32 -0.32)">
     <use xlink:href="#TimesNewRomanPS-BoldMT-28"/>
     <use xlink:href="#TimesNewRomanPS-BoldMT-32" transform="translate(33.300781 0)"/>
     <use xlink:href="#TimesNewRomanPS-BoldMT-38" transform="translate(83.300781 0)"/>
     <use xlink:href="#TimesNewRomanPS-BoldMT-2e" transform="translate(133.300781 0)"/>
     <use xlink:href="#TimesNewRomanPS-BoldMT-30" transform="translate(158.300781 0)"/>
     <use xlink:href="#TimesNewRomanPS-BoldMT-25" transform="translate(208.300781 0)"/>
     <use xlink:href="#TimesNewRomanPS-BoldMT-29" transform="translate(308.300781 0)"/>
    </g>
   </g>
   <g id="text_30">
    <!-- 304 -->
    <g style="fill: #ffffff" transform="translate(1130.091489 300.741212) scale(0.32 -0.32)">
     <use xlink:href="#TimesNewRomanPS-BoldMT-33"/>
     <use xlink:href="#TimesNewRomanPS-BoldMT-30" transform="translate(50 0)"/>
     <use xlink:href="#TimesNewRomanPS-BoldMT-34" transform="translate(100 0)"/>
    </g>
    <!-- (72.0%) -->
    <g style="fill: #ffffff" transform="translate(1099.436489 333.062212) scale(0.32 -0.32)">
     <use xlink:href="#TimesNewRomanPS-BoldMT-28"/>
     <use xlink:href="#TimesNewRomanPS-BoldMT-37" transform="translate(33.300781 0)"/>
     <use xlink:href="#TimesNewRomanPS-BoldMT-32" transform="translate(83.300781 0)"/>
     <use xlink:href="#TimesNewRomanPS-BoldMT-2e" transform="translate(133.300781 0)"/>
     <use xlink:href="#TimesNewRomanPS-BoldMT-30" transform="translate(158.300781 0)"/>
     <use xlink:href="#TimesNewRomanPS-BoldMT-25" transform="translate(208.300781 0)"/>
     <use xlink:href="#TimesNewRomanPS-BoldMT-29" transform="translate(308.300781 0)"/>
    </g>
   </g>
  </g>
  <g id="axes_4">
   <g id="patch_5">
    <path d="M 97.470313 787.183125 
L 432.905607 787.183125 
L 432.905607 479.148342 
L 97.470313 479.148342 
z
" style="fill: #ffffff"/>
   </g>
   <g id="QuadMesh_4">
    <path d="M 97.470313 479.148342 
L 265.18796 479.148342 
L 265.18796 633.165734 
L 97.470313 633.165734 
L 97.470313 479.148342 
" clip-path="url(#pb5366a03da)" style="fill: #b7d4ea"/>
    <path d="M 265.18796 479.148342 
L 432.905607 479.148342 
L 432.905607 633.165734 
L 265.18796 633.165734 
L 265.18796 479.148342 
" clip-path="url(#pb5366a03da)" style="fill: #e7f0fa"/>
    <path d="M 97.470313 633.165734 
L 265.18796 633.165734 
L 265.18796 787.183125 
L 97.470313 787.183125 
L 97.470313 633.165734 
" clip-path="url(#pb5366a03da)" style="fill: #f7fbff"/>
    <path d="M 265.18796 633.165734 
L 432.905607 633.165734 
L 432.905607 787.183125 
L 265.18796 787.183125 
L 265.18796 633.165734 
" clip-path="url(#pb5366a03da)" style="fill: #08306b"/>
   </g>
   <g id="matplotlib.axis_7">
    <g id="xtick_7">
     <g id="line2d_13">
      <g>
       <use xlink:href="#m7ce636003c" x="181.329136" y="787.183125" style="stroke: #000000; stroke-width: 1.5"/>
      </g>
     </g>
     <g id="text_31">
      <!-- No -->
      <g transform="translate(166.662886 810.848125) scale(0.24 -0.24)">
       <use xlink:href="#TimesNewRomanPSMT-4e"/>
       <use xlink:href="#TimesNewRomanPSMT-6f" transform="translate(72.216797 0)"/>
      </g>
     </g>
    </g>
    <g id="xtick_8">
     <g id="line2d_14">
      <g>
       <use xlink:href="#m7ce636003c" x="349.046783" y="787.183125" style="stroke: #000000; stroke-width: 1.5"/>
      </g>
     </g>
     <g id="text_32">
      <!-- Yes -->
      <g transform="translate(331.583033 810.848125) scale(0.24 -0.24)">
       <use xlink:href="#TimesNewRomanPSMT-59"/>
       <use xlink:href="#TimesNewRomanPSMT-65" transform="translate(62.216797 0)"/>
       <use xlink:href="#TimesNewRomanPSMT-73" transform="translate(106.601562 0)"/>
      </g>
     </g>
    </g>
    <g id="text_33">
     <!-- Predicted -->
     <g transform="translate(220.177335 834.55) scale(0.22 -0.22)">
      <use xlink:href="#TimesNewRomanPS-BoldMT-50"/>
      <use xlink:href="#TimesNewRomanPS-BoldMT-72" transform="translate(61.083984 0)"/>
      <use xlink:href="#TimesNewRomanPS-BoldMT-65" transform="translate(103.71875 0)"/>
      <use xlink:href="#TimesNewRomanPS-BoldMT-64" transform="translate(148.103516 0)"/>
      <use xlink:href="#TimesNewRomanPS-BoldMT-69" transform="translate(203.71875 0)"/>
      <use xlink:href="#TimesNewRomanPS-BoldMT-63" transform="translate(231.501953 0)"/>
      <use xlink:href="#TimesNewRomanPS-BoldMT-74" transform="translate(275.886719 0)"/>
      <use xlink:href="#TimesNewRomanPS-BoldMT-65" transform="translate(309.1875 0)"/>
      <use xlink:href="#TimesNewRomanPS-BoldMT-64" transform="translate(353.572266 0)"/>
     </g>
    </g>
   </g>
   <g id="matplotlib.axis_8">
    <g id="ytick_7">
     <g id="line2d_15">
      <g>
       <use xlink:href="#m856ad41ca0" x="97.470313" y="556.157038" style="stroke: #000000; stroke-width: 1.5"/>
      </g>
     </g>
     <g id="text_34">
      <!-- No -->
      <g transform="translate(85.336563 570.823288) rotate(-90) scale(0.24 -0.24)">
       <use xlink:href="#TimesNewRomanPSMT-4e"/>
       <use xlink:href="#TimesNewRomanPSMT-6f" transform="translate(72.216797 0)"/>
      </g>
     </g>
    </g>
    <g id="ytick_8">
     <g id="line2d_16">
      <g>
       <use xlink:href="#m856ad41ca0" x="97.470313" y="710.174429" style="stroke: #000000; stroke-width: 1.5"/>
      </g>
     </g>
     <g id="text_35">
      <!-- Yes -->
      <g transform="translate(85.336563 727.638179) rotate(-90) scale(0.24 -0.24)">
       <use xlink:href="#TimesNewRomanPSMT-59"/>
       <use xlink:href="#TimesNewRomanPSMT-65" transform="translate(62.216797 0)"/>
       <use xlink:href="#TimesNewRomanPSMT-73" transform="translate(106.601562 0)"/>
      </g>
     </g>
    </g>
    <g id="text_36">
     <!-- True -->
     <g transform="translate(59.965625 655.574796) rotate(-90) scale(0.22 -0.22)">
      <use xlink:href="#TimesNewRomanPS-BoldMT-54"/>
      <use xlink:href="#TimesNewRomanPS-BoldMT-72" transform="translate(59.324219 0)"/>
      <use xlink:href="#TimesNewRomanPS-BoldMT-75" transform="translate(103.708984 0)"/>
      <use xlink:href="#TimesNewRomanPS-BoldMT-65" transform="translate(159.324219 0)"/>
     </g>
    </g>
   </g>
   <g id="text_37">
    <!-- 111 -->
    <g style="fill: #262626" transform="translate(159.089136 547.169038) scale(0.32 -0.32)">
     <use xlink:href="#TimesNewRomanPS-BoldMT-31"/>
     <use xlink:href="#TimesNewRomanPS-BoldMT-31" transform="translate(44.5 0)"/>
     <use xlink:href="#TimesNewRomanPS-BoldMT-31" transform="translate(89 0)"/>
    </g>
    <!-- (68.1%) -->
    <g style="fill: #262626" transform="translate(126.674136 579.490038) scale(0.32 -0.32)">
     <use xlink:href="#TimesNewRomanPS-BoldMT-28"/>
     <use xlink:href="#TimesNewRomanPS-BoldMT-36" transform="translate(33.300781 0)"/>
     <use xlink:href="#TimesNewRomanPS-BoldMT-38" transform="translate(83.300781 0)"/>
     <use xlink:href="#TimesNewRomanPS-BoldMT-2e" transform="translate(133.300781 0)"/>
     <use xlink:href="#TimesNewRomanPS-BoldMT-31" transform="translate(158.300781 0)"/>
     <use xlink:href="#TimesNewRomanPS-BoldMT-25" transform="translate(208.300781 0)"/>
     <use xlink:href="#TimesNewRomanPS-BoldMT-29" transform="translate(308.300781 0)"/>
    </g>
   </g>
   <g id="text_38">
    <!-- 52 -->
    <g style="fill: #262626" transform="translate(333.046783 547.169038) scale(0.32 -0.32)">
     <use xlink:href="#TimesNewRomanPS-BoldMT-35"/>
     <use xlink:href="#TimesNewRomanPS-BoldMT-32" transform="translate(50 0)"/>
    </g>
    <!-- (31.9%) -->
    <g style="fill: #262626" transform="translate(294.391783 579.490038) scale(0.32 -0.32)">
     <use xlink:href="#TimesNewRomanPS-BoldMT-28"/>
     <use xlink:href="#TimesNewRomanPS-BoldMT-33" transform="translate(33.300781 0)"/>
     <use xlink:href="#TimesNewRomanPS-BoldMT-31" transform="translate(83.300781 0)"/>
     <use xlink:href="#TimesNewRomanPS-BoldMT-2e" transform="translate(133.300781 0)"/>
     <use xlink:href="#TimesNewRomanPS-BoldMT-39" transform="translate(158.300781 0)"/>
     <use xlink:href="#TimesNewRomanPS-BoldMT-25" transform="translate(208.300781 0)"/>
     <use xlink:href="#TimesNewRomanPS-BoldMT-29" transform="translate(308.300781 0)"/>
    </g>
   </g>
   <g id="text_39">
    <!-- 29 -->
    <g style="fill: #262626" transform="translate(165.329136 701.186429) scale(0.32 -0.32)">
     <use xlink:href="#TimesNewRomanPS-BoldMT-32"/>
     <use xlink:href="#TimesNewRomanPS-BoldMT-39" transform="translate(50 0)"/>
    </g>
    <!-- (8.7%) -->
    <g style="fill: #262626" transform="translate(134.674136 733.507429) scale(0.32 -0.32)">
     <use xlink:href="#TimesNewRomanPS-BoldMT-28"/>
     <use xlink:href="#TimesNewRomanPS-BoldMT-38" transform="translate(33.300781 0)"/>
     <use xlink:href="#TimesNewRomanPS-BoldMT-2e" transform="translate(83.300781 0)"/>
     <use xlink:href="#TimesNewRomanPS-BoldMT-37" transform="translate(108.300781 0)"/>
     <use xlink:href="#TimesNewRomanPS-BoldMT-25" transform="translate(158.300781 0)"/>
     <use xlink:href="#TimesNewRomanPS-BoldMT-29" transform="translate(258.300781 0)"/>
    </g>
   </g>
   <g id="text_40">
    <!-- 304 -->
    <g style="fill: #ffffff" transform="translate(325.046783 701.186429) scale(0.32 -0.32)">
     <use xlink:href="#TimesNewRomanPS-BoldMT-33"/>
     <use xlink:href="#TimesNewRomanPS-BoldMT-30" transform="translate(50 0)"/>
     <use xlink:href="#TimesNewRomanPS-BoldMT-34" transform="translate(100 0)"/>
    </g>
    <!-- (91.3%) -->
    <g style="fill: #ffffff" transform="translate(294.391783 733.507429) scale(0.32 -0.32)">
     <use xlink:href="#TimesNewRomanPS-BoldMT-28"/>
     <use xlink:href="#TimesNewRomanPS-BoldMT-39" transform="translate(33.300781 0)"/>
     <use xlink:href="#TimesNewRomanPS-BoldMT-31" transform="translate(83.300781 0)"/>
     <use xlink:href="#TimesNewRomanPS-BoldMT-2e" transform="translate(133.300781 0)"/>
     <use xlink:href="#TimesNewRomanPS-BoldMT-33" transform="translate(158.300781 0)"/>
     <use xlink:href="#TimesNewRomanPS-BoldMT-25" transform="translate(208.300781 0)"/>
     <use xlink:href="#TimesNewRomanPS-BoldMT-29" transform="translate(308.300781 0)"/>
    </g>
   </g>
  </g>
  <g id="axes_5">
   <g id="patch_6">
    <path d="M 499.992665 787.183125 
L 835.42796 787.183125 
L 835.42796 479.148342 
L 499.992665 479.148342 
z
" style="fill: #ffffff"/>
   </g>
   <g id="QuadMesh_5">
    <path d="M 499.992665 479.148342 
L 667.710312 479.148342 
L 667.710312 633.165734 
L 499.992665 633.165734 
L 499.992665 479.148342 
" clip-path="url(#p6e58d23a73)" style="fill: #d4e4f4"/>
    <path d="M 667.710312 479.148342 
L 835.42796 479.148342 
L 835.42796 633.165734 
L 667.710312 633.165734 
L 667.710312 479.148342 
" clip-path="url(#p6e58d23a73)" style="fill: #ddeaf7"/>
    <path d="M 499.992665 633.165734 
L 667.710312 633.165734 
L 667.710312 787.183125 
L 499.992665 787.183125 
L 499.992665 633.165734 
" clip-path="url(#p6e58d23a73)" style="fill: #f7fbff"/>
    <path d="M 667.710312 633.165734 
L 835.42796 633.165734 
L 835.42796 787.183125 
L 667.710312 787.183125 
L 667.710312 633.165734 
" clip-path="url(#p6e58d23a73)" style="fill: #08306b"/>
   </g>
   <g id="matplotlib.axis_9">
    <g id="xtick_9">
     <g id="line2d_17">
      <g>
       <use xlink:href="#m7ce636003c" x="583.851489" y="787.183125" style="stroke: #000000; stroke-width: 1.5"/>
      </g>
     </g>
     <g id="text_41">
      <!-- No -->
      <g transform="translate(569.185239 810.848125) scale(0.24 -0.24)">
       <use xlink:href="#TimesNewRomanPSMT-4e"/>
       <use xlink:href="#TimesNewRomanPSMT-6f" transform="translate(72.216797 0)"/>
      </g>
     </g>
    </g>
    <g id="xtick_10">
     <g id="line2d_18">
      <g>
       <use xlink:href="#m7ce636003c" x="751.569136" y="787.183125" style="stroke: #000000; stroke-width: 1.5"/>
      </g>
     </g>
     <g id="text_42">
      <!-- Yes -->
      <g transform="translate(734.105386 810.848125) scale(0.24 -0.24)">
       <use xlink:href="#TimesNewRomanPSMT-59"/>
       <use xlink:href="#TimesNewRomanPSMT-65" transform="translate(62.216797 0)"/>
       <use xlink:href="#TimesNewRomanPSMT-73" transform="translate(106.601562 0)"/>
      </g>
     </g>
    </g>
    <g id="text_43">
     <!-- Predicted -->
     <g transform="translate(622.699687 834.55) scale(0.22 -0.22)">
      <use xlink:href="#TimesNewRomanPS-BoldMT-50"/>
      <use xlink:href="#TimesNewRomanPS-BoldMT-72" transform="translate(61.083984 0)"/>
      <use xlink:href="#TimesNewRomanPS-BoldMT-65" transform="translate(103.71875 0)"/>
      <use xlink:href="#TimesNewRomanPS-BoldMT-64" transform="translate(148.103516 0)"/>
      <use xlink:href="#TimesNewRomanPS-BoldMT-69" transform="translate(203.71875 0)"/>
      <use xlink:href="#TimesNewRomanPS-BoldMT-63" transform="translate(231.501953 0)"/>
      <use xlink:href="#TimesNewRomanPS-BoldMT-74" transform="translate(275.886719 0)"/>
      <use xlink:href="#TimesNewRomanPS-BoldMT-65" transform="translate(309.1875 0)"/>
      <use xlink:href="#TimesNewRomanPS-BoldMT-64" transform="translate(353.572266 0)"/>
     </g>
    </g>
   </g>
   <g id="matplotlib.axis_10">
    <g id="ytick_9">
     <g id="line2d_19">
      <g>
       <use xlink:href="#m856ad41ca0" x="499.992665" y="556.157038" style="stroke: #000000; stroke-width: 1.5"/>
      </g>
     </g>
     <g id="text_44">
      <!-- No -->
      <g transform="translate(487.858915 570.823288) rotate(-90) scale(0.24 -0.24)">
       <use xlink:href="#TimesNewRomanPSMT-4e"/>
       <use xlink:href="#TimesNewRomanPSMT-6f" transform="translate(72.216797 0)"/>
      </g>
     </g>
    </g>
    <g id="ytick_10">
     <g id="line2d_20">
      <g>
       <use xlink:href="#m856ad41ca0" x="499.992665" y="710.174429" style="stroke: #000000; stroke-width: 1.5"/>
      </g>
     </g>
     <g id="text_45">
      <!-- Yes -->
      <g transform="translate(487.858915 727.638179) rotate(-90) scale(0.24 -0.24)">
       <use xlink:href="#TimesNewRomanPSMT-59"/>
       <use xlink:href="#TimesNewRomanPSMT-65" transform="translate(62.216797 0)"/>
       <use xlink:href="#TimesNewRomanPSMT-73" transform="translate(106.601562 0)"/>
      </g>
     </g>
    </g>
    <g id="text_46">
     <!-- True -->
     <g transform="translate(462.487978 655.574796) rotate(-90) scale(0.22 -0.22)">
      <use xlink:href="#TimesNewRomanPS-BoldMT-54"/>
      <use xlink:href="#TimesNewRomanPS-BoldMT-72" transform="translate(59.324219 0)"/>
      <use xlink:href="#TimesNewRomanPS-BoldMT-75" transform="translate(103.708984 0)"/>
      <use xlink:href="#TimesNewRomanPS-BoldMT-65" transform="translate(159.324219 0)"/>
     </g>
    </g>
   </g>
   <g id="text_47">
    <!-- 86 -->
    <g style="fill: #262626" transform="translate(567.851489 547.169038) scale(0.32 -0.32)">
     <use xlink:href="#TimesNewRomanPS-BoldMT-38"/>
     <use xlink:href="#TimesNewRomanPS-BoldMT-36" transform="translate(50 0)"/>
    </g>
    <!-- (53.8%) -->
    <g style="fill: #262626" transform="translate(529.196489 579.490038) scale(0.32 -0.32)">
     <use xlink:href="#TimesNewRomanPS-BoldMT-28"/>
     <use xlink:href="#TimesNewRomanPS-BoldMT-35" transform="translate(33.300781 0)"/>
     <use xlink:href="#TimesNewRomanPS-BoldMT-33" transform="translate(83.300781 0)"/>
     <use xlink:href="#TimesNewRomanPS-BoldMT-2e" transform="translate(133.300781 0)"/>
     <use xlink:href="#TimesNewRomanPS-BoldMT-38" transform="translate(158.300781 0)"/>
     <use xlink:href="#TimesNewRomanPS-BoldMT-25" transform="translate(208.300781 0)"/>
     <use xlink:href="#TimesNewRomanPS-BoldMT-29" transform="translate(308.300781 0)"/>
    </g>
   </g>
   <g id="text_48">
    <!-- 74 -->
    <g style="fill: #262626" transform="translate(735.569136 547.169038) scale(0.32 -0.32)">
     <use xlink:href="#TimesNewRomanPS-BoldMT-37"/>
     <use xlink:href="#TimesNewRomanPS-BoldMT-34" transform="translate(50 0)"/>
    </g>
    <!-- (46.2%) -->
    <g style="fill: #262626" transform="translate(696.914136 579.490038) scale(0.32 -0.32)">
     <use xlink:href="#TimesNewRomanPS-BoldMT-28"/>
     <use xlink:href="#TimesNewRomanPS-BoldMT-34" transform="translate(33.300781 0)"/>
     <use xlink:href="#TimesNewRomanPS-BoldMT-36" transform="translate(83.300781 0)"/>
     <use xlink:href="#TimesNewRomanPS-BoldMT-2e" transform="translate(133.300781 0)"/>
     <use xlink:href="#TimesNewRomanPS-BoldMT-32" transform="translate(158.300781 0)"/>
     <use xlink:href="#TimesNewRomanPS-BoldMT-25" transform="translate(208.300781 0)"/>
     <use xlink:href="#TimesNewRomanPS-BoldMT-29" transform="translate(308.300781 0)"/>
    </g>
   </g>
   <g id="text_49">
    <!-- 41 -->
    <g style="fill: #262626" transform="translate(567.851489 701.186429) scale(0.32 -0.32)">
     <use xlink:href="#TimesNewRomanPS-BoldMT-34"/>
     <use xlink:href="#TimesNewRomanPS-BoldMT-31" transform="translate(50 0)"/>
    </g>
    <!-- (12.2%) -->
    <g style="fill: #262626" transform="translate(529.196489 733.507429) scale(0.32 -0.32)">
     <use xlink:href="#TimesNewRomanPS-BoldMT-28"/>
     <use xlink:href="#TimesNewRomanPS-BoldMT-31" transform="translate(33.300781 0)"/>
     <use xlink:href="#TimesNewRomanPS-BoldMT-32" transform="translate(83.300781 0)"/>
     <use xlink:href="#TimesNewRomanPS-BoldMT-2e" transform="translate(133.300781 0)"/>
     <use xlink:href="#TimesNewRomanPS-BoldMT-32" transform="translate(158.300781 0)"/>
     <use xlink:href="#TimesNewRomanPS-BoldMT-25" transform="translate(208.300781 0)"/>
     <use xlink:href="#TimesNewRomanPS-BoldMT-29" transform="translate(308.300781 0)"/>
    </g>
   </g>
   <g id="text_50">
    <!-- 295 -->
    <g style="fill: #ffffff" transform="translate(727.569136 701.186429) scale(0.32 -0.32)">
     <use xlink:href="#TimesNewRomanPS-BoldMT-32"/>
     <use xlink:href="#TimesNewRomanPS-BoldMT-39" transform="translate(50 0)"/>
     <use xlink:href="#TimesNewRomanPS-BoldMT-35" transform="translate(100 0)"/>
    </g>
    <!-- (87.8%) -->
    <g style="fill: #ffffff" transform="translate(696.914136 733.507429) scale(0.32 -0.32)">
     <use xlink:href="#TimesNewRomanPS-BoldMT-28"/>
     <use xlink:href="#TimesNewRomanPS-BoldMT-38" transform="translate(33.300781 0)"/>
     <use xlink:href="#TimesNewRomanPS-BoldMT-37" transform="translate(83.300781 0)"/>
     <use xlink:href="#TimesNewRomanPS-BoldMT-2e" transform="translate(133.300781 0)"/>
     <use xlink:href="#TimesNewRomanPS-BoldMT-38" transform="translate(158.300781 0)"/>
     <use xlink:href="#TimesNewRomanPS-BoldMT-25" transform="translate(208.300781 0)"/>
     <use xlink:href="#TimesNewRomanPS-BoldMT-29" transform="translate(308.300781 0)"/>
    </g>
   </g>
  </g>
  <g id="axes_6">
   <g id="patch_7">
    <path d="M 902.515018 787.183125 
L 1237.950313 787.183125 
L 1237.950313 479.148342 
L 902.515018 479.148342 
z
" style="fill: #ffffff"/>
   </g>
   <g id="QuadMesh_6">
    <path d="M 902.515018 479.148342 
L 1070.232665 479.148342 
L 1070.232665 633.165734 
L 902.515018 633.165734 
L 902.515018 479.148342 
" clip-path="url(#pc0d28952e0)" style="fill: #f7fbff"/>
    <path d="M 1070.232665 479.148342 
L 1237.950313 479.148342 
L 1237.950313 633.165734 
L 1070.232665 633.165734 
L 1070.232665 479.148342 
" clip-path="url(#pc0d28952e0)" style="fill: #d7e6f5"/>
    <path d="M 902.515018 633.165734 
L 1070.232665 633.165734 
L 1070.232665 787.183125 
L 902.515018 787.183125 
L 902.515018 633.165734 
" clip-path="url(#pc0d28952e0)" style="fill: #b8d5ea"/>
    <path d="M 1070.232665 633.165734 
L 1237.950313 633.165734 
L 1237.950313 787.183125 
L 1070.232665 787.183125 
L 1070.232665 633.165734 
" clip-path="url(#pc0d28952e0)" style="fill: #08306b"/>
   </g>
   <g id="matplotlib.axis_11">
    <g id="xtick_11">
     <g id="line2d_21">
      <g>
       <use xlink:href="#m7ce636003c" x="986.373842" y="787.183125" style="stroke: #000000; stroke-width: 1.5"/>
      </g>
     </g>
     <g id="text_51">
      <!-- No -->
      <g transform="translate(971.707592 810.848125) scale(0.24 -0.24)">
       <use xlink:href="#TimesNewRomanPSMT-4e"/>
       <use xlink:href="#TimesNewRomanPSMT-6f" transform="translate(72.216797 0)"/>
      </g>
     </g>
    </g>
    <g id="xtick_12">
     <g id="line2d_22">
      <g>
       <use xlink:href="#m7ce636003c" x="1154.091489" y="787.183125" style="stroke: #000000; stroke-width: 1.5"/>
      </g>
     </g>
     <g id="text_52">
      <!-- Yes -->
      <g transform="translate(1136.627739 810.848125) scale(0.24 -0.24)">
       <use xlink:href="#TimesNewRomanPSMT-59"/>
       <use xlink:href="#TimesNewRomanPSMT-65" transform="translate(62.216797 0)"/>
       <use xlink:href="#TimesNewRomanPSMT-73" transform="translate(106.601562 0)"/>
      </g>
     </g>
    </g>
    <g id="text_53">
     <!-- Predicted -->
     <g transform="translate(1025.22204 834.55) scale(0.22 -0.22)">
      <use xlink:href="#TimesNewRomanPS-BoldMT-50"/>
      <use xlink:href="#TimesNewRomanPS-BoldMT-72" transform="translate(61.083984 0)"/>
      <use xlink:href="#TimesNewRomanPS-BoldMT-65" transform="translate(103.71875 0)"/>
      <use xlink:href="#TimesNewRomanPS-BoldMT-64" transform="translate(148.103516 0)"/>
      <use xlink:href="#TimesNewRomanPS-BoldMT-69" transform="translate(203.71875 0)"/>
      <use xlink:href="#TimesNewRomanPS-BoldMT-63" transform="translate(231.501953 0)"/>
      <use xlink:href="#TimesNewRomanPS-BoldMT-74" transform="translate(275.886719 0)"/>
      <use xlink:href="#TimesNewRomanPS-BoldMT-65" transform="translate(309.1875 0)"/>
      <use xlink:href="#TimesNewRomanPS-BoldMT-64" transform="translate(353.572266 0)"/>
     </g>
    </g>
   </g>
   <g id="matplotlib.axis_12">
    <g id="ytick_11">
     <g id="line2d_23">
      <g>
       <use xlink:href="#m856ad41ca0" x="902.515018" y="556.157038" style="stroke: #000000; stroke-width: 1.5"/>
      </g>
     </g>
     <g id="text_54">
      <!-- No -->
      <g transform="translate(890.381268 570.823288) rotate(-90) scale(0.24 -0.24)">
       <use xlink:href="#TimesNewRomanPSMT-4e"/>
       <use xlink:href="#TimesNewRomanPSMT-6f" transform="translate(72.216797 0)"/>
      </g>
     </g>
    </g>
    <g id="ytick_12">
     <g id="line2d_24">
      <g>
       <use xlink:href="#m856ad41ca0" x="902.515018" y="710.174429" style="stroke: #000000; stroke-width: 1.5"/>
      </g>
     </g>
     <g id="text_55">
      <!-- Yes -->
      <g transform="translate(890.381268 727.638179) rotate(-90) scale(0.24 -0.24)">
       <use xlink:href="#TimesNewRomanPSMT-59"/>
       <use xlink:href="#TimesNewRomanPSMT-65" transform="translate(62.216797 0)"/>
       <use xlink:href="#TimesNewRomanPSMT-73" transform="translate(106.601562 0)"/>
      </g>
     </g>
    </g>
    <g id="text_56">
     <!-- True -->
     <g transform="translate(865.010331 655.574796) rotate(-90) scale(0.22 -0.22)">
      <use xlink:href="#TimesNewRomanPS-BoldMT-54"/>
      <use xlink:href="#TimesNewRomanPS-BoldMT-72" transform="translate(59.324219 0)"/>
      <use xlink:href="#TimesNewRomanPS-BoldMT-75" transform="translate(103.708984 0)"/>
      <use xlink:href="#TimesNewRomanPS-BoldMT-65" transform="translate(159.324219 0)"/>
     </g>
    </g>
   </g>
   <g id="text_57">
    <!-- 65 -->
    <g style="fill: #262626" transform="translate(970.373842 547.169038) scale(0.32 -0.32)">
     <use xlink:href="#TimesNewRomanPS-BoldMT-36"/>
     <use xlink:href="#TimesNewRomanPS-BoldMT-35" transform="translate(50 0)"/>
    </g>
    <!-- (41.7%) -->
    <g style="fill: #262626" transform="translate(931.718842 579.490038) scale(0.32 -0.32)">
     <use xlink:href="#TimesNewRomanPS-BoldMT-28"/>
     <use xlink:href="#TimesNewRomanPS-BoldMT-34" transform="translate(33.300781 0)"/>
     <use xlink:href="#TimesNewRomanPS-BoldMT-31" transform="translate(83.300781 0)"/>
     <use xlink:href="#TimesNewRomanPS-BoldMT-2e" transform="translate(133.300781 0)"/>
     <use xlink:href="#TimesNewRomanPS-BoldMT-37" transform="translate(158.300781 0)"/>
     <use xlink:href="#TimesNewRomanPS-BoldMT-25" transform="translate(208.300781 0)"/>
     <use xlink:href="#TimesNewRomanPS-BoldMT-29" transform="translate(308.300781 0)"/>
    </g>
   </g>
   <g id="text_58">
    <!-- 91 -->
    <g style="fill: #262626" transform="translate(1138.091489 547.169038) scale(0.32 -0.32)">
     <use xlink:href="#TimesNewRomanPS-BoldMT-39"/>
     <use xlink:href="#TimesNewRomanPS-BoldMT-31" transform="translate(50 0)"/>
    </g>
    <!-- (58.3%) -->
    <g style="fill: #262626" transform="translate(1099.436489 579.490038) scale(0.32 -0.32)">
     <use xlink:href="#TimesNewRomanPS-BoldMT-28"/>
     <use xlink:href="#TimesNewRomanPS-BoldMT-35" transform="translate(33.300781 0)"/>
     <use xlink:href="#TimesNewRomanPS-BoldMT-38" transform="translate(83.300781 0)"/>
     <use xlink:href="#TimesNewRomanPS-BoldMT-2e" transform="translate(133.300781 0)"/>
     <use xlink:href="#TimesNewRomanPS-BoldMT-33" transform="translate(158.300781 0)"/>
     <use xlink:href="#TimesNewRomanPS-BoldMT-25" transform="translate(208.300781 0)"/>
     <use xlink:href="#TimesNewRomanPS-BoldMT-29" transform="translate(308.300781 0)"/>
    </g>
   </g>
   <g id="text_59">
    <!-- 113 -->
    <g style="fill: #262626" transform="translate(963.253842 701.186429) scale(0.32 -0.32)">
     <use xlink:href="#TimesNewRomanPS-BoldMT-31"/>
     <use xlink:href="#TimesNewRomanPS-BoldMT-31" transform="translate(44.5 0)"/>
     <use xlink:href="#TimesNewRomanPS-BoldMT-33" transform="translate(94.5 0)"/>
    </g>
    <!-- (33.2%) -->
    <g style="fill: #262626" transform="translate(931.718842 733.507429) scale(0.32 -0.32)">
     <use xlink:href="#TimesNewRomanPS-BoldMT-28"/>
     <use xlink:href="#TimesNewRomanPS-BoldMT-33" transform="translate(33.300781 0)"/>
     <use xlink:href="#TimesNewRomanPS-BoldMT-33" transform="translate(83.300781 0)"/>
     <use xlink:href="#TimesNewRomanPS-BoldMT-2e" transform="translate(133.300781 0)"/>
     <use xlink:href="#TimesNewRomanPS-BoldMT-32" transform="translate(158.300781 0)"/>
     <use xlink:href="#TimesNewRomanPS-BoldMT-25" transform="translate(208.300781 0)"/>
     <use xlink:href="#TimesNewRomanPS-BoldMT-29" transform="translate(308.300781 0)"/>
    </g>
   </g>
   <g id="text_60">
    <!-- 227 -->
    <g style="fill: #ffffff" transform="translate(1130.091489 701.186429) scale(0.32 -0.32)">
     <use xlink:href="#TimesNewRomanPS-BoldMT-32"/>
     <use xlink:href="#TimesNewRomanPS-BoldMT-32" transform="translate(50 0)"/>
     <use xlink:href="#TimesNewRomanPS-BoldMT-37" transform="translate(100 0)"/>
    </g>
    <!-- (66.8%) -->
    <g style="fill: #ffffff" transform="translate(1099.436489 733.507429) scale(0.32 -0.32)">
     <use xlink:href="#TimesNewRomanPS-BoldMT-28"/>
     <use xlink:href="#TimesNewRomanPS-BoldMT-36" transform="translate(33.300781 0)"/>
     <use xlink:href="#TimesNewRomanPS-BoldMT-36" transform="translate(83.300781 0)"/>
     <use xlink:href="#TimesNewRomanPS-BoldMT-2e" transform="translate(133.300781 0)"/>
     <use xlink:href="#TimesNewRomanPS-BoldMT-38" transform="translate(158.300781 0)"/>
     <use xlink:href="#TimesNewRomanPS-BoldMT-25" transform="translate(208.300781 0)"/>
     <use xlink:href="#TimesNewRomanPS-BoldMT-29" transform="translate(308.300781 0)"/>
    </g>
   </g>
  </g>
  <g id="text_61">
   <g id="patch_8">
    <path d="M 35.055625 343.985 
L 35.055625 72.62125 
L 4.365 72.62125 
L 4.365 343.985 
z
" style="fill: #ffffff; opacity: 0.8; stroke: #dcdcdc; stroke-linejoin: miter"/>
   </g>
   <!-- Mistake Identification -->
   <g transform="translate(25.98625 340.905) rotate(-90) scale(0.28 -0.28)">
    <defs>
     <path id="TimesNewRomanPS-BoldMT-4d" d="M 3050 1444 
L 4200 4238 
L 5925 4238 
L 5925 4122 
L 5788 4122 
Q 5600 4122 5488 4056 
Q 5409 4013 5363 3909 
Q 5328 3834 5328 3519 
L 5328 725 
Q 5328 400 5362 319 
Q 5397 238 5503 177 
Q 5609 116 5788 116 
L 5925 116 
L 5925 0 
L 3713 0 
L 3713 116 
L 3850 116 
Q 4038 116 4150 181 
Q 4228 225 4275 331 
Q 4309 406 4309 725 
L 4309 3866 
L 2684 0 
L 2609 0 
L 959 3838 
L 959 853 
Q 959 541 975 469 
Q 1016 313 1152 214 
Q 1288 116 1578 116 
L 1578 0 
L 128 0 
L 128 116 
L 172 116 
Q 313 113 434 161 
Q 556 209 618 290 
Q 681 372 716 519 
Q 722 553 722 838 
L 722 3519 
Q 722 3841 687 3920 
Q 653 4000 547 4061 
Q 441 4122 263 4122 
L 128 4122 
L 128 4238 
L 1859 4238 
L 3050 1444 
z
" transform="scale(0.015625)"/>
     <path id="TimesNewRomanPS-BoldMT-73" d="M 2063 3003 
L 2109 2006 
L 2003 2006 
Q 1813 2450 1608 2612 
Q 1403 2775 1200 2775 
Q 1072 2775 981 2689 
Q 891 2603 891 2491 
Q 891 2406 953 2328 
Q 1053 2200 1512 1889 
Q 1972 1578 2117 1361 
Q 2263 1144 2263 875 
Q 2263 631 2141 397 
Q 2019 163 1797 37 
Q 1575 -88 1306 -88 
Q 1097 -88 747 44 
Q 653 78 619 78 
Q 516 78 447 -78 
L 344 -78 
L 294 972 
L 400 972 
Q 541 559 786 353 
Q 1031 147 1250 147 
Q 1400 147 1495 239 
Q 1591 331 1591 463 
Q 1591 613 1497 722 
Q 1403 831 1078 1053 
Q 600 1384 459 1559 
Q 253 1816 253 2125 
Q 253 2463 486 2736 
Q 719 3009 1159 3009 
Q 1397 3009 1619 2894 
Q 1703 2847 1756 2847 
Q 1813 2847 1847 2870 
Q 1881 2894 1956 3003 
L 2063 3003 
z
" transform="scale(0.015625)"/>
     <path id="TimesNewRomanPS-BoldMT-61" d="M 1828 431 
Q 1294 -41 869 -41 
Q 619 -41 453 123 
Q 288 288 288 534 
Q 288 869 575 1136 
Q 863 1403 1828 1847 
L 1828 2141 
Q 1828 2472 1792 2558 
Q 1756 2644 1656 2708 
Q 1556 2772 1431 2772 
Q 1228 2772 1097 2681 
Q 1016 2625 1016 2550 
Q 1016 2484 1103 2388 
Q 1222 2253 1222 2128 
Q 1222 1975 1108 1867 
Q 994 1759 809 1759 
Q 613 1759 480 1878 
Q 347 1997 347 2156 
Q 347 2381 525 2586 
Q 703 2791 1022 2900 
Q 1341 3009 1684 3009 
Q 2100 3009 2342 2832 
Q 2584 2656 2656 2450 
Q 2700 2319 2700 1847 
L 2700 713 
Q 2700 513 2715 461 
Q 2731 409 2762 384 
Q 2794 359 2834 359 
Q 2916 359 3000 475 
L 3094 400 
Q 2938 169 2770 64 
Q 2603 -41 2391 -41 
Q 2141 -41 2000 76 
Q 1859 194 1828 431 
z
M 1828 659 
L 1828 1638 
Q 1450 1416 1266 1163 
Q 1144 994 1144 822 
Q 1144 678 1247 569 
Q 1325 484 1466 484 
Q 1622 484 1828 659 
z
" transform="scale(0.015625)"/>
     <path id="TimesNewRomanPS-BoldMT-6b" d="M 1403 4238 
L 1403 1450 
L 2081 2116 
Q 2291 2319 2342 2409 
Q 2394 2500 2394 2584 
Q 2394 2669 2325 2725 
Q 2256 2781 2056 2806 
L 2056 2922 
L 3366 2922 
L 3366 2806 
Q 3178 2797 3037 2717 
Q 2897 2638 2488 2238 
L 2169 1925 
L 2856 919 
Q 3272 306 3350 231 
Q 3456 125 3619 113 
L 3619 0 
L 2109 0 
L 2109 113 
Q 2209 113 2254 150 
Q 2300 188 2300 231 
Q 2300 303 2169 497 
L 1591 1344 
L 1403 1159 
L 1403 634 
Q 1403 300 1465 217 
Q 1528 134 1722 113 
L 1722 0 
L 213 0 
L 213 113 
Q 397 131 475 231 
Q 528 300 528 634 
L 528 3603 
Q 528 3934 467 4015 
Q 406 4097 213 4122 
L 213 4238 
L 1403 4238 
z
" transform="scale(0.015625)"/>
     <path id="TimesNewRomanPS-BoldMT-20" transform="scale(0.015625)"/>
     <path id="TimesNewRomanPS-BoldMT-49" d="M 2344 116 
L 2344 0 
L 128 0 
L 128 116 
L 269 116 
Q 453 116 566 181 
Q 647 225 691 331 
Q 725 406 725 725 
L 725 3513 
Q 725 3838 690 3919 
Q 656 4000 551 4061 
Q 447 4122 269 4122 
L 128 4122 
L 128 4238 
L 2344 4238 
L 2344 4122 
L 2203 4122 
Q 2019 4122 1906 4056 
Q 1825 4013 1778 3906 
Q 1744 3831 1744 3513 
L 1744 725 
Q 1744 400 1780 319 
Q 1816 238 1920 177 
Q 2025 116 2203 116 
L 2344 116 
z
" transform="scale(0.015625)"/>
     <path id="TimesNewRomanPS-BoldMT-6e" d="M 1409 2922 
L 1409 2544 
Q 1634 2788 1840 2898 
Q 2047 3009 2284 3009 
Q 2569 3009 2756 2851 
Q 2944 2694 3006 2459 
Q 3056 2281 3056 1775 
L 3056 638 
Q 3056 300 3117 217 
Q 3178 134 3372 113 
L 3372 0 
L 1894 0 
L 1894 113 
Q 2059 134 2131 250 
Q 2181 328 2181 638 
L 2181 1938 
Q 2181 2297 2153 2390 
Q 2125 2484 2058 2536 
Q 1991 2588 1909 2588 
Q 1641 2588 1409 2203 
L 1409 638 
Q 1409 309 1470 221 
Q 1531 134 1697 113 
L 1697 0 
L 219 0 
L 219 113 
Q 403 131 481 231 
Q 534 300 534 638 
L 534 2288 
Q 534 2619 473 2700 
Q 413 2781 219 2806 
L 219 2922 
L 1409 2922 
z
" transform="scale(0.015625)"/>
     <path id="TimesNewRomanPS-BoldMT-66" d="M 1497 2616 
L 1497 588 
Q 1497 294 1559 219 
Q 1659 103 1928 113 
L 1928 0 
L 206 0 
L 206 113 
Q 403 116 486 158 
Q 569 200 600 275 
Q 631 350 631 588 
L 631 2616 
L 206 2616 
L 206 2922 
L 631 2922 
L 631 3138 
L 628 3284 
Q 628 3734 958 4034 
Q 1288 4334 1850 4334 
Q 2234 4334 2420 4190 
Q 2606 4047 2606 3872 
Q 2606 3731 2490 3628 
Q 2375 3525 2184 3525 
Q 2022 3525 1926 3609 
Q 1831 3694 1831 3797 
Q 1831 3825 1850 3913 
Q 1863 3966 1863 4013 
Q 1863 4078 1825 4109 
Q 1775 4156 1703 4156 
Q 1613 4156 1552 4081 
Q 1491 4006 1491 3841 
L 1497 3294 
L 1497 2922 
L 1928 2922 
L 1928 2616 
L 1497 2616 
z
" transform="scale(0.015625)"/>
     <path id="TimesNewRomanPS-BoldMT-6f" d="M 1594 3009 
Q 1975 3009 2303 2812 
Q 2631 2616 2801 2253 
Q 2972 1891 2972 1459 
Q 2972 838 2656 419 
Q 2275 -88 1603 -88 
Q 944 -88 587 375 
Q 231 838 231 1447 
Q 231 2075 595 2542 
Q 959 3009 1594 3009 
z
M 1606 2788 
Q 1447 2788 1333 2667 
Q 1219 2547 1183 2192 
Q 1147 1838 1147 1206 
Q 1147 872 1191 581 
Q 1225 359 1337 243 
Q 1450 128 1594 128 
Q 1734 128 1828 206 
Q 1950 313 1991 503 
Q 2053 800 2053 1703 
Q 2053 2234 1993 2432 
Q 1934 2631 1819 2722 
Q 1738 2788 1606 2788 
z
" transform="scale(0.015625)"/>
    </defs>
    <use xlink:href="#TimesNewRomanPS-BoldMT-4d"/>
    <use xlink:href="#TimesNewRomanPS-BoldMT-69" transform="translate(94.384766 0)"/>
    <use xlink:href="#TimesNewRomanPS-BoldMT-73" transform="translate(122.167969 0)"/>
    <use xlink:href="#TimesNewRomanPS-BoldMT-74" transform="translate(161.083984 0)"/>
    <use xlink:href="#TimesNewRomanPS-BoldMT-61" transform="translate(194.384766 0)"/>
    <use xlink:href="#TimesNewRomanPS-BoldMT-6b" transform="translate(244.384766 0)"/>
    <use xlink:href="#TimesNewRomanPS-BoldMT-65" transform="translate(300 0)"/>
    <use xlink:href="#TimesNewRomanPS-BoldMT-20" transform="translate(344.384766 0)"/>
    <use xlink:href="#TimesNewRomanPS-BoldMT-49" transform="translate(369.384766 0)"/>
    <use xlink:href="#TimesNewRomanPS-BoldMT-64" transform="translate(408.300781 0)"/>
    <use xlink:href="#TimesNewRomanPS-BoldMT-65" transform="translate(463.916016 0)"/>
    <use xlink:href="#TimesNewRomanPS-BoldMT-6e" transform="translate(508.300781 0)"/>
    <use xlink:href="#TimesNewRomanPS-BoldMT-74" transform="translate(563.916016 0)"/>
    <use xlink:href="#TimesNewRomanPS-BoldMT-69" transform="translate(597.216797 0)"/>
    <use xlink:href="#TimesNewRomanPS-BoldMT-66" transform="translate(625 0)"/>
    <use xlink:href="#TimesNewRomanPS-BoldMT-69" transform="translate(658.300781 0)"/>
    <use xlink:href="#TimesNewRomanPS-BoldMT-63" transform="translate(686.083984 0)"/>
    <use xlink:href="#TimesNewRomanPS-BoldMT-61" transform="translate(730.46875 0)"/>
    <use xlink:href="#TimesNewRomanPS-BoldMT-74" transform="translate(780.46875 0)"/>
    <use xlink:href="#TimesNewRomanPS-BoldMT-69" transform="translate(813.769531 0)"/>
    <use xlink:href="#TimesNewRomanPS-BoldMT-6f" transform="translate(841.552734 0)"/>
    <use xlink:href="#TimesNewRomanPS-BoldMT-6e" transform="translate(891.552734 0)"/>
   </g>
  </g>
  <g id="text_62">
   <g id="patch_9">
    <path d="M 35.300625 721.159688 
L 35.300625 559.446563 
L 4.12 559.446563 
L 4.12 721.159688 
z
" style="fill: #ffffff; opacity: 0.8; stroke: #dcdcdc; stroke-linejoin: miter"/>
   </g>
   <!-- Actionability -->
   <g transform="translate(26.17875 718.079687) rotate(-90) scale(0.28 -0.28)">
    <defs>
     <path id="TimesNewRomanPS-BoldMT-41" d="M 2663 1206 
L 1166 1206 
L 988 794 
Q 900 588 900 453 
Q 900 275 1044 191 
Q 1128 141 1459 116 
L 1459 0 
L 50 0 
L 50 116 
Q 278 150 425 304 
Q 572 459 788 944 
L 2303 4325 
L 2363 4325 
L 3891 850 
Q 4109 356 4250 228 
Q 4356 131 4550 116 
L 4550 0 
L 2500 0 
L 2500 116 
L 2584 116 
Q 2831 116 2931 184 
Q 3000 234 3000 328 
Q 3000 384 2981 444 
Q 2975 472 2888 678 
L 2663 1206 
z
M 2556 1438 
L 1925 2897 
L 1275 1438 
L 2556 1438 
z
" transform="scale(0.015625)"/>
     <path id="TimesNewRomanPS-BoldMT-62" d="M 1347 4238 
L 1347 2628 
Q 1716 3009 2153 3009 
Q 2453 3009 2718 2832 
Q 2984 2656 3134 2331 
Q 3284 2006 3284 1581 
Q 3284 1103 3093 712 
Q 2903 322 2584 117 
Q 2266 -88 1856 -88 
Q 1619 -88 1434 -12 
Q 1250 63 1072 231 
L 588 -84 
L 481 -84 
L 481 3631 
Q 481 3884 459 3944 
Q 428 4031 361 4073 
Q 294 4116 134 4122 
L 134 4238 
L 1347 4238 
z
M 1347 2350 
L 1347 1050 
Q 1347 653 1366 544 
Q 1397 359 1515 245 
Q 1634 131 1819 131 
Q 1978 131 2092 222 
Q 2206 313 2282 581 
Q 2359 850 2359 1550 
Q 2359 2222 2191 2472 
Q 2069 2653 1863 2653 
Q 1594 2653 1347 2350 
z
" transform="scale(0.015625)"/>
     <path id="TimesNewRomanPS-BoldMT-6c" d="M 1359 4238 
L 1359 606 
Q 1359 297 1431 211 
Q 1503 125 1713 113 
L 1713 0 
L 134 0 
L 134 113 
Q 328 119 422 225 
Q 484 297 484 606 
L 484 3631 
Q 484 3938 412 4023 
Q 341 4109 134 4122 
L 134 4238 
L 1359 4238 
z
" transform="scale(0.015625)"/>
     <path id="TimesNewRomanPS-BoldMT-79" d="M 1556 -119 
L 613 2047 
Q 400 2538 298 2650 
Q 197 2763 53 2806 
L 53 2922 
L 1606 2922 
L 1606 2806 
Q 1453 2800 1390 2747 
Q 1328 2694 1328 2619 
Q 1328 2500 1484 2150 
L 1984 1006 
L 2325 1891 
Q 2509 2363 2509 2547 
Q 2509 2663 2432 2731 
Q 2356 2800 2163 2806 
L 2163 2922 
L 3141 2922 
L 3141 2806 
Q 2997 2791 2906 2695 
Q 2816 2600 2603 2047 
L 1769 -119 
Q 1453 -931 1300 -1119 
Q 1084 -1381 759 -1381 
Q 500 -1381 339 -1232 
Q 178 -1084 178 -875 
Q 178 -694 289 -575 
Q 400 -456 563 -456 
Q 719 -456 814 -556 
Q 909 -656 913 -866 
Q 916 -984 941 -1019 
Q 966 -1053 1013 -1053 
Q 1088 -1053 1172 -963 
Q 1297 -831 1466 -363 
L 1556 -119 
z
" transform="scale(0.015625)"/>
    </defs>
    <use xlink:href="#TimesNewRomanPS-BoldMT-41"/>
    <use xlink:href="#TimesNewRomanPS-BoldMT-63" transform="translate(72.216797 0)"/>
    <use xlink:href="#TimesNewRomanPS-BoldMT-74" transform="translate(116.601562 0)"/>
    <use xlink:href="#TimesNewRomanPS-BoldMT-69" transform="translate(149.902344 0)"/>
    <use xlink:href="#TimesNewRomanPS-BoldMT-6f" transform="translate(177.685547 0)"/>
    <use xlink:href="#TimesNewRomanPS-BoldMT-6e" transform="translate(227.685547 0)"/>
    <use xlink:href="#TimesNewRomanPS-BoldMT-61" transform="translate(283.300781 0)"/>
    <use xlink:href="#TimesNewRomanPS-BoldMT-62" transform="translate(333.300781 0)"/>
    <use xlink:href="#TimesNewRomanPS-BoldMT-69" transform="translate(388.916016 0)"/>
    <use xlink:href="#TimesNewRomanPS-BoldMT-6c" transform="translate(416.699219 0)"/>
    <use xlink:href="#TimesNewRomanPS-BoldMT-69" transform="translate(444.482422 0)"/>
    <use xlink:href="#TimesNewRomanPS-BoldMT-74" transform="translate(472.265625 0)"/>
    <use xlink:href="#TimesNewRomanPS-BoldMT-79" transform="translate(505.566406 0)"/>
   </g>
  </g>
  <g id="text_63">
   <g id="patch_10">
    <path d="M 182.86625 66.795 
L 297.194375 66.795 
L 297.194375 4.21125 
L 182.86625 4.21125 
z
" style="fill: #ffffff; opacity: 0.8; stroke: #dcdcdc; stroke-linejoin: miter"/>
   </g>
   <!-- Encoder -->
   <g transform="translate(185.86625 27.076875) scale(0.3 -0.3)">
    <defs>
     <path id="TimesNewRomanPS-BoldMT-45" d="M 1744 3994 
L 1744 2269 
L 1828 2269 
Q 2231 2269 2412 2522 
Q 2594 2775 2644 3269 
L 2763 3269 
L 2763 1050 
L 2644 1050 
Q 2606 1413 2486 1644 
Q 2366 1875 2206 1954 
Q 2047 2034 1744 2034 
L 1744 841 
Q 1744 491 1773 412 
Q 1803 334 1884 284 
Q 1966 234 2147 234 
L 2400 234 
Q 2994 234 3351 509 
Q 3709 784 3866 1347 
L 3981 1347 
L 3791 0 
L 128 0 
L 128 116 
L 269 116 
Q 453 116 566 181 
Q 647 225 691 331 
Q 725 406 725 725 
L 725 3513 
Q 725 3800 709 3866 
Q 678 3975 594 4034 
Q 475 4122 269 4122 
L 128 4122 
L 128 4238 
L 3675 4238 
L 3675 2984 
L 3556 2984 
Q 3466 3444 3302 3644 
Q 3138 3844 2838 3938 
Q 2663 3994 2181 3994 
L 1744 3994 
z
" transform="scale(0.015625)"/>
    </defs>
    <use xlink:href="#TimesNewRomanPS-BoldMT-45"/>
    <use xlink:href="#TimesNewRomanPS-BoldMT-6e" transform="translate(66.699219 0)"/>
    <use xlink:href="#TimesNewRomanPS-BoldMT-63" transform="translate(122.314453 0)"/>
    <use xlink:href="#TimesNewRomanPS-BoldMT-6f" transform="translate(166.699219 0)"/>
    <use xlink:href="#TimesNewRomanPS-BoldMT-64" transform="translate(216.699219 0)"/>
    <use xlink:href="#TimesNewRomanPS-BoldMT-65" transform="translate(272.314453 0)"/>
    <use xlink:href="#TimesNewRomanPS-BoldMT-72" transform="translate(316.699219 0)"/>
   </g>
   <!-- (BERT) -->
   <g transform="translate(189.717031 57.377813) scale(0.3 -0.3)">
    <defs>
     <path id="TimesNewRomanPS-BoldMT-42" d="M 2847 2247 
Q 3450 2106 3694 1906 
Q 4044 1622 4044 1169 
Q 4044 691 3659 378 
Q 3188 0 2288 0 
L 134 0 
L 134 116 
Q 428 116 533 170 
Q 638 225 680 312 
Q 722 400 722 744 
L 722 3494 
Q 722 3838 680 3927 
Q 638 4016 531 4069 
Q 425 4122 134 4122 
L 134 4238 
L 2166 4238 
Q 2894 4238 3197 4108 
Q 3500 3978 3675 3720 
Q 3850 3463 3850 3172 
Q 3850 2866 3628 2627 
Q 3406 2388 2847 2247 
z
M 1709 2331 
Q 2153 2331 2364 2431 
Q 2575 2531 2687 2712 
Q 2800 2894 2800 3175 
Q 2800 3456 2689 3636 
Q 2578 3816 2372 3909 
Q 2166 4003 1709 4000 
L 1709 2331 
z
M 1709 2088 
L 1709 728 
L 1706 572 
Q 1706 403 1792 317 
Q 1878 231 2047 231 
Q 2297 231 2508 342 
Q 2719 453 2831 664 
Q 2944 875 2944 1134 
Q 2944 1431 2806 1667 
Q 2669 1903 2428 1997 
Q 2188 2091 1709 2088 
z
" transform="scale(0.015625)"/>
     <path id="TimesNewRomanPS-BoldMT-52" d="M 1700 1931 
L 1700 744 
Q 1700 400 1742 311 
Q 1784 222 1890 169 
Q 1997 116 2288 116 
L 2288 0 
L 119 0 
L 119 116 
Q 413 116 517 170 
Q 622 225 664 312 
Q 706 400 706 744 
L 706 3494 
Q 706 3838 664 3927 
Q 622 4016 515 4069 
Q 409 4122 119 4122 
L 119 4238 
L 2088 4238 
Q 2856 4238 3212 4131 
Q 3569 4025 3794 3739 
Q 4019 3453 4019 3069 
Q 4019 2600 3681 2294 
Q 3466 2100 3078 2003 
L 4097 569 
Q 4297 291 4381 222 
Q 4509 125 4678 116 
L 4678 0 
L 3344 0 
L 1978 1931 
L 1700 1931 
z
M 1700 4009 
L 1700 2153 
L 1878 2153 
Q 2313 2153 2528 2233 
Q 2744 2313 2867 2520 
Q 2991 2728 2991 3063 
Q 2991 3547 2764 3778 
Q 2538 4009 2034 4009 
L 1700 4009 
z
" transform="scale(0.015625)"/>
    </defs>
    <use xlink:href="#TimesNewRomanPS-BoldMT-28"/>
    <use xlink:href="#TimesNewRomanPS-BoldMT-42" transform="translate(33.300781 0)"/>
    <use xlink:href="#TimesNewRomanPS-BoldMT-45" transform="translate(100 0)"/>
    <use xlink:href="#TimesNewRomanPS-BoldMT-52" transform="translate(166.699219 0)"/>
    <use xlink:href="#TimesNewRomanPS-BoldMT-54" transform="translate(235.416016 0)"/>
    <use xlink:href="#TimesNewRomanPS-BoldMT-29" transform="translate(302.115234 0)"/>
   </g>
  </g>
  <g id="text_64">
   <g id="patch_11">
    <path d="M 539.845625 66.795 
L 769.655 66.795 
L 769.655 4.21125 
L 539.845625 4.21125 
z
" style="fill: #ffffff; opacity: 0.8; stroke: #dcdcdc; stroke-linejoin: miter"/>
   </g>
   <!-- Encoder-Decoder -->
   <g transform="translate(542.845625 27.076875) scale(0.3 -0.3)">
    <defs>
     <path id="TimesNewRomanPS-BoldMT-2d" d="M 1978 1147 
L 156 1147 
L 156 1794 
L 1978 1794 
L 1978 1147 
z
" transform="scale(0.015625)"/>
     <path id="TimesNewRomanPS-BoldMT-44" d="M 84 0 
L 84 116 
L 225 116 
Q 409 116 507 173 
Q 606 231 653 331 
Q 681 397 681 725 
L 681 3513 
Q 681 3838 647 3919 
Q 613 4000 508 4061 
Q 403 4122 225 4122 
L 84 4122 
L 84 4238 
L 1981 4238 
Q 2741 4238 3203 4031 
Q 3769 3778 4061 3265 
Q 4353 2753 4353 2106 
Q 4353 1659 4209 1282 
Q 4066 906 3837 661 
Q 3609 416 3311 267 
Q 3013 119 2581 38 
Q 2391 0 1981 0 
L 84 0 
z
M 1700 3997 
L 1700 691 
Q 1700 428 1725 368 
Q 1750 309 1809 278 
Q 1894 231 2053 231 
Q 2575 231 2850 588 
Q 3225 1069 3225 2081 
Q 3225 2897 2969 3384 
Q 2766 3766 2447 3903 
Q 2222 4000 1700 3997 
z
" transform="scale(0.015625)"/>
    </defs>
    <use xlink:href="#TimesNewRomanPS-BoldMT-45"/>
    <use xlink:href="#TimesNewRomanPS-BoldMT-6e" transform="translate(66.699219 0)"/>
    <use xlink:href="#TimesNewRomanPS-BoldMT-63" transform="translate(122.314453 0)"/>
    <use xlink:href="#TimesNewRomanPS-BoldMT-6f" transform="translate(166.699219 0)"/>
    <use xlink:href="#TimesNewRomanPS-BoldMT-64" transform="translate(216.699219 0)"/>
    <use xlink:href="#TimesNewRomanPS-BoldMT-65" transform="translate(272.314453 0)"/>
    <use xlink:href="#TimesNewRomanPS-BoldMT-72" transform="translate(316.699219 0)"/>
    <use xlink:href="#TimesNewRomanPS-BoldMT-2d" transform="translate(357.333984 0)"/>
    <use xlink:href="#TimesNewRomanPS-BoldMT-44" transform="translate(390.634766 0)"/>
    <use xlink:href="#TimesNewRomanPS-BoldMT-65" transform="translate(462.851562 0)"/>
    <use xlink:href="#TimesNewRomanPS-BoldMT-63" transform="translate(507.236328 0)"/>
    <use xlink:href="#TimesNewRomanPS-BoldMT-6f" transform="translate(551.621094 0)"/>
    <use xlink:href="#TimesNewRomanPS-BoldMT-64" transform="translate(601.621094 0)"/>
    <use xlink:href="#TimesNewRomanPS-BoldMT-65" transform="translate(657.236328 0)"/>
    <use xlink:href="#TimesNewRomanPS-BoldMT-72" transform="translate(701.621094 0)"/>
   </g>
   <!-- (T5) -->
   <g transform="translate(627.255781 57.377813) scale(0.3 -0.3)">
    <use xlink:href="#TimesNewRomanPS-BoldMT-28"/>
    <use xlink:href="#TimesNewRomanPS-BoldMT-54" transform="translate(33.300781 0)"/>
    <use xlink:href="#TimesNewRomanPS-BoldMT-35" transform="translate(100 0)"/>
    <use xlink:href="#TimesNewRomanPS-BoldMT-29" transform="translate(150 0)"/>
   </g>
  </g>
  <g id="text_65">
   <g id="patch_12">
    <path d="M 1013.161719 66.80625 
L 1125.778906 66.80625 
L 1125.778906 4.2 
L 1013.161719 4.2 
z
" style="fill: #ffffff; opacity: 0.8; stroke: #dcdcdc; stroke-linejoin: miter"/>
   </g>
   <!-- Decoder -->
   <g transform="translate(1016.161719 27.065625) scale(0.3 -0.3)">
    <use xlink:href="#TimesNewRomanPS-BoldMT-44"/>
    <use xlink:href="#TimesNewRomanPS-BoldMT-65" transform="translate(72.216797 0)"/>
    <use xlink:href="#TimesNewRomanPS-BoldMT-63" transform="translate(116.601562 0)"/>
    <use xlink:href="#TimesNewRomanPS-BoldMT-6f" transform="translate(160.986328 0)"/>
    <use xlink:href="#TimesNewRomanPS-BoldMT-64" transform="translate(210.986328 0)"/>
    <use xlink:href="#TimesNewRomanPS-BoldMT-65" transform="translate(266.601562 0)"/>
    <use xlink:href="#TimesNewRomanPS-BoldMT-72" transform="translate(310.986328 0)"/>
   </g>
   <!-- (GPT-2) -->
   <g transform="translate(1017.521094 57.389063) scale(0.3 -0.3)">
    <defs>
     <path id="TimesNewRomanPS-BoldMT-47" d="M 4416 4334 
L 4416 2841 
L 4300 2841 
Q 4091 3453 3672 3772 
Q 3253 4091 2756 4091 
Q 2281 4091 1965 3823 
Q 1650 3556 1519 3078 
Q 1388 2600 1388 2097 
Q 1388 1488 1531 1028 
Q 1675 569 1995 353 
Q 2316 138 2756 138 
Q 2909 138 3070 170 
Q 3231 203 3400 266 
L 3400 1147 
Q 3400 1397 3365 1470 
Q 3331 1544 3223 1603 
Q 3116 1663 2963 1663 
L 2853 1663 
L 2853 1778 
L 4913 1778 
L 4913 1663 
Q 4678 1647 4586 1598 
Q 4494 1550 4444 1438 
Q 4416 1378 4416 1147 
L 4416 266 
Q 4009 84 3570 -8 
Q 3131 -100 2659 -100 
Q 2056 -100 1657 64 
Q 1259 228 954 495 
Q 650 763 478 1097 
Q 259 1528 259 2063 
Q 259 3019 931 3678 
Q 1603 4338 2622 4338 
Q 2938 4338 3191 4288 
Q 3328 4263 3636 4145 
Q 3944 4028 4000 4028 
Q 4088 4028 4163 4092 
Q 4238 4156 4300 4334 
L 4416 4334 
z
" transform="scale(0.015625)"/>
    </defs>
    <use xlink:href="#TimesNewRomanPS-BoldMT-28"/>
    <use xlink:href="#TimesNewRomanPS-BoldMT-47" transform="translate(33.300781 0)"/>
    <use xlink:href="#TimesNewRomanPS-BoldMT-50" transform="translate(111.083984 0)"/>
    <use xlink:href="#TimesNewRomanPS-BoldMT-54" transform="translate(172.167969 0)"/>
    <use xlink:href="#TimesNewRomanPS-BoldMT-2d" transform="translate(229.742188 0)"/>
    <use xlink:href="#TimesNewRomanPS-BoldMT-32" transform="translate(263.042969 0)"/>
    <use xlink:href="#TimesNewRomanPS-BoldMT-29" transform="translate(313.042969 0)"/>
   </g>
  </g>
 </g>
 <defs>
  <clipPath id="ped114cb6eb">
   <rect x="97.470313" y="78.703125" width="335.435294" height="308.034783"/>
  </clipPath>
  <clipPath id="p4cf58b980a">
   <rect x="499.992665" y="78.703125" width="335.435294" height="308.034783"/>
  </clipPath>
  <clipPath id="pb927caec36">
   <rect x="902.515018" y="78.703125" width="335.435294" height="308.034783"/>
  </clipPath>
  <clipPath id="pb5366a03da">
   <rect x="97.470313" y="479.148342" width="335.435294" height="308.034783"/>
  </clipPath>
  <clipPath id="p6e58d23a73">
   <rect x="499.992665" y="479.148342" width="335.435294" height="308.034783"/>
  </clipPath>
  <clipPath id="pc0d28952e0">
   <rect x="902.515018" y="479.148342" width="335.435294" height="308.034783"/>
  </clipPath>
 </defs>
</svg>
